<svg id="Layer_1" data-name="Layer 1" xmlns="http://www.w3.org/2000/svg" viewBox="0 0 1600 935.5"><defs><style>.cls-1{fill:#e5d1d9;}.cls-2{fill:#b1dddc;}.cls-3{fill:#f4dfba;}.cls-4{fill:#c6b5ba;}.cls-20,.cls-5{fill:#f9f7b9;}.cls-6{fill:#97cece;}.cls-7{fill:#f4f4be;}.cls-8{fill:#e8e5b3;}.cls-9{fill:#8cbab9;}.cls-10{fill:#d3bb94;}.cls-11{fill:#fff;}.cls-12{fill:#c91843;}.cls-13{fill:#cacaca;}.cls-14{fill:#949b0b;}.cls-15{fill:#aeba37;}.cls-16{fill:#dbdddd;}.cls-17{fill:#e8a3bf;}.cls-18{fill:#0c45d1;opacity:0.15;}.cls-18,.cls-20,.cls-43,.cls-56{isolation:isolate;}.cls-19{fill:#00aebc;}.cls-20{opacity:0.64;}.cls-21{fill:#ffffa4;}.cls-22{fill:#dff7f6;}.cls-23{fill:#d35e88;}.cls-24{fill:#4f350e;}.cls-25{fill:#c7995b;}.cls-26{fill:#4e3514;}.cls-27{fill:#99744b;}.cls-28{fill:#893d5c;}.cls-29{fill:#002128;}.cls-30{fill:#6b534e;}.cls-31{fill:#423734;}.cls-32{fill:#160e0c;}.cls-33{fill:#473532;}.cls-34{fill:#211312;}.cls-35{fill:#9b9b9b;}.cls-36{fill:none;stroke:#dbdddd;stroke-linecap:round;stroke-linejoin:round;stroke-width:2px;}.cls-37{fill:#ea83ad;}.cls-38,.cls-43{fill:#ffc29e;}.cls-39{fill:#dba082;}.cls-40{fill:#c9c9c9;}.cls-41{fill:#929393;}.cls-42{fill:#eaad8f;}.cls-43{opacity:0.29;}.cls-44{fill:#aa7c3c;}.cls-45{fill:#826121;}.cls-46{fill:#c8cccc;}.cls-47{fill:#cecccd;}.cls-48{fill:#a0a0a0;}.cls-49{fill:#63666a;}.cls-50{fill:#aaaaa7;}.cls-51{fill:#eae0b5;}.cls-52{fill:#e8c7a3;}.cls-53{fill:#616668;}.cls-54{fill:#909799;}.cls-55{fill:#828687;}.cls-57{fill:#100f0d;}.cls-58{fill:#211c1d;}</style></defs><g id="_-background_speech_bubbles" data-name="-background speech bubbles"><path class="cls-1" d="M800.28,508.06h132.6c3.2,6.3,2.4,13.8-.5,21.2a35.17,35.17,0,0,0-.9-19.5H800.28Z"/><path class="cls-1" d="M993,505.86s-.3.8-.9,2.2h-59.2a15.92,15.92,0,0,0-1.3-2.2Z"/><path class="cls-2" d="M1343.08,225.26v238.8H800.28V83.66h401.2A141.6,141.6,0,0,1,1343.08,225.26Z"/><path class="cls-3" d="M853.78,133.66c-12,28.2-53.8,34.2-53.8,34.2v336.8H296.68v-287a133.22,133.22,0,0,1,133.2-133.2h370.2v49.2C810.48,146.66,852.88,134,853.78,133.66Z"/><path class="cls-1" d="M1343.08,508.06v1.8H993s-24.1,56.5-87.5,61.6c0,0,1.8-1.6,4.4-4.3,55.3-5.5,77.6-48.6,82.1-59h351.1Z"/><path class="cls-1" d="M297,742.76V503.86h332.7s22.9-47.5,83.1-51.7c0,0-34.4,26.5-24.8,51.7h124.7v357.9H431.48C357.28,861.76,311.08,865.86,297,742.76Z"/><path class="cls-4" d="M384.18,861.76h426.6v-77.7H306.48A77.78,77.78,0,0,0,384.18,861.76Z"/><path class="cls-4" d="M993,505.86s-.3.8-.9,2.2h-59.2a15.92,15.92,0,0,0-1.3-2.2Z"/><path class="cls-5" d="M962.58,194.46l20.2,5.1a1.36,1.36,0,0,0,1.7-1.6l-3.8-18.7a1.42,1.42,0,0,0-2.3-.8l-16.3,13.6A1.36,1.36,0,0,0,962.58,194.46Z"/><path class="cls-1" d="M938.88,703.56l-16.3-16.3a2.92,2.92,0,0,1,1.3-4.9l22.2-5.8a2.83,2.83,0,0,1,3.5,3.5l-5.8,22.2A2.92,2.92,0,0,1,938.88,703.56Z"/><path class="cls-6" d="M744.48,449.76v29.8a3,3,0,0,0,4.2,2.7l24.6-11.9a2.92,2.92,0,0,0,.5-5l-24.6-17.9A2.9,2.9,0,0,0,744.48,449.76Z"/><path class="cls-7" d="M812.58,446.46l28.5-.3a1.5,1.5,0,0,0,0-3l-28.5.3c-1.8.1-1.8,3.1,0,3Z"/><path class="cls-7" d="M833.08,455a60.13,60.13,0,0,0,16.4.5A1.54,1.54,0,0,0,851,454c0-.7-.7-1.6-1.5-1.5a63.51,63.51,0,0,1-15.7-.4,1.51,1.51,0,0,0-1.8,1,1.75,1.75,0,0,0,1.1,1.9Z"/><path class="cls-5" d="M1343.08,503.66v244.5c0,50.73-41.3,93.6-98.28,108.12a165.82,165.82,0,0,1-18.68,3.64q-3.09.44-6.24.75l-1.36.13q-8,.75-16.34.76H810.78v-17.3c0-20.4-.2-40.7.2-61,.1-3.3,0-6.7,0-10-.1-6.5-.2-12.9-.2-19.4V602.16c-42.5-8.2-51.1-34.1-51.1-34.1,28.6,11,45.1,5,51.1,1.8v-66.2Z"/><path class="cls-8" d="M1332.68,791.26c-21.1,41.4-71.5,70.4-130.4,70.4H811v-70.4Z"/><path class="cls-9" d="M1343.08,459.76v44h-351c-4.5,10.3-26.8,53.5-82.1,59,6.7-6.9,19.1-21.5,22.6-37.7h0c2.8-7.5,3.5-15,.5-21.2H800.28v-44.1Z"/><path class="cls-10" d="M488,241.06h-85.6a25.8,25.8,0,0,1-25.8-25.8v-63a25.8,25.8,0,0,1,25.8-25.8H488a25.8,25.8,0,0,1,25.8,25.8v63A25.73,25.73,0,0,1,488,241.06Z"/><path class="cls-11" d="M484.48,232.36h-92.3a22,22,0,0,1-22-22v-68.7a22,22,0,0,1,22-22h92.3a22,22,0,0,1,22,22v68.7A22,22,0,0,1,484.48,232.36Z"/><path class="cls-12" d="M484.88,180h-93.2c-11.9,0-21.4-3.6-21.4-15.5l-.1-23.2a21.53,21.53,0,0,1,21.5-21.5h93.2a21.53,21.53,0,0,1,21.5,21.5v17.2C507.28,177.86,496.88,181,484.88,180Z"/><rect class="cls-13" x="398.88" y="185.16" width="2" height="40.2"/><rect class="cls-13" x="413.78" y="186.06" width="2" height="40.2"/><rect class="cls-13" x="429.48" y="186.06" width="2" height="40.2"/><rect class="cls-13" x="444.28" y="185.16" width="2" height="31.4"/><rect class="cls-13" x="458.28" y="185.16" width="2" height="31.4"/><rect class="cls-13" x="472.28" y="184.36" width="2" height="32.3"/><rect class="cls-13" x="384.98" y="193.76" width="104.8" height="2"/><rect class="cls-13" x="384.98" y="205.16" width="104.8" height="2"/><path class="cls-13" d="M385,226.36a.94.94,0,0,1-1-1v-40.2a1,1,0,1,1,2,0v40.2A1,1,0,0,1,385,226.36Z"/><rect class="cls-13" x="384.98" y="224.36" width="45.4" height="2"/><path class="cls-13" d="M489.78,186.16H385a1,1,0,0,1,0-2h104.8a1,1,0,0,1,0,2Z"/><path class="cls-13" d="M489.78,217.56a.94.94,0,0,1-1-1v-31.4a1,1,0,1,1,2,0v31.5A.92.92,0,0,1,489.78,217.56Z"/><path class="cls-13" d="M489.78,217.56H385a1,1,0,0,1,0-2h104.8a1,1,0,0,1,0,2Z"/><rect class="cls-12" x="370.38" y="162.76" width="136.2" height="18.3"/><rect class="cls-12" x="491.68" y="126.06" width="3.4" height="54.2"/><rect class="cls-12" x="382.58" y="176.76" width="116.1" height="3.4"/><path class="cls-14" d="M345.28,504.36c-13-14.2-11.7-36.3-6.7-55s13.2-37.1,11.2-56.3c-1.4-13.6-7.9-26.4-9.3-40-3.1-31,20.4-58.6,23.9-89.5,1.1-9.3.4-18.9,3.2-27.8,4.7-15.1,18.4-25.2,32.5-32.7a1,1,0,0,1,1.3,1.5,92.21,92.21,0,0,0-15.5,37.6s-10.7,36.2-3.4,60.3-16.9,37-12.2,60.6,6.6,54.8,0,68.9c-19,40.7-2.6,72.6-2.6,72.6Z"/><path class="cls-11" d="M387.18,279a245.92,245.92,0,0,1,10.5,27.9,1.51,1.51,0,0,0,2.9-.8,266.4,266.4,0,0,0-10.8-28.6c-.8-1.7-3.3-.2-2.6,1.5Z"/><path class="cls-15" d="M355.48,505.56c-1.6-8.7-3.2-17.4-2.1-26.2,1.9-15.1,11-28.3,13.9-43,4.8-25.9-10.6-53.1-2.9-78.3,3.2-10.6,10.4-19.8,13.9-30.2,4.8-14.6,2.1-30.5,4-45.7a77.53,77.53,0,0,1,39.8-57.6,1,1,0,0,1,1.4,1.4c-12.5,22.4-24.7,46.3-22.8,71.6,1,12.1,5,23.7,6.1,35.7a70.84,70.84,0,0,1-5.3,33.7c-3.2,7.5-7.7,14.5-10.4,22.2a53.64,53.64,0,0,0-2.4,27.5c1.9,10.5,6.8,20.5,6.7,31.1-.1,9.8-4.5,19-7.8,28.3s-5.5,19.8-1.2,28.7Z"/><path class="cls-12" d="M780.88,547.66a8,8,0,1,1,8-8A8,8,0,0,1,780.88,547.66Zm0-14a6,6,0,1,0,6,6A6,6,0,0,0,780.88,533.66Z"/><path class="cls-5" d="M1245.58,165.16a2,2,0,0,1-1.3-.4,2.57,2.57,0,0,1-1.2-2.1v-30.3a2.4,2.4,0,0,1,1.4-2.2,2.69,2.69,0,0,1,2.6.2l25,18.2a2.44,2.44,0,0,1,1,2.2,2.47,2.47,0,0,1-1.4,2l-25,12.1A3,3,0,0,1,1245.58,165.16Zm.6-32.7a2.54,2.54,0,0,0-.7.2,1.44,1.44,0,0,0-.8,1.3v28.1a1.5,1.5,0,0,0,2.1,1.3l23.1-11.2a1.3,1.3,0,0,0,.8-1.2,1.61,1.61,0,0,0-.6-1.3l-23.1-16.8A.91.91,0,0,0,1246.18,132.46Z"/></g><g id="background_elements" data-name="background elements"><path class="cls-14" d="M1241,813.47l-14.86,46.45q-3.09.44-6.24.75c-.4-.45-.81-.93-1.25-1.44A126.11,126.11,0,0,1,1189.08,784c-2.1-51.3,21.4-90.5,21.4-90.5,20.73,38.5,27.61,73.37,29.77,95.48C1241.75,804.28,1241,813.47,1241,813.47Z"/><path class="cls-15" d="M1218.52,860.8c0-.38.06-.91.11-1.57.67-7.7,4.13-34,21.62-70.28,12-25,30.77-54.77,59.83-86.49,0,0-8.65,98-55.28,153.82C1244.8,856.28,1237.2,859.07,1218.52,860.8Z"/><path class="cls-16" d="M1104.28,802.86c-9.7,0-19.6-3.4-20.3-3.6a1,1,0,0,1-.6-1.3,1,1,0,0,1,1.3-.6c.2.1,22.7,7.8,31.8.2a1,1,0,1,1,1.3,1.5C1114.38,801.86,1109.38,802.86,1104.28,802.86Z"/><path class="cls-16" d="M1103.58,809.26a91.91,91.91,0,0,1-19.5-2.5,1,1,0,1,1,.5-1.9c.2.1,21.5,5.4,32.1.1a1.05,1.05,0,0,1,1.3.4,1.09,1.09,0,0,1-.4,1.3C1113.68,808.66,1108.68,809.26,1103.58,809.26Z"/><path class="cls-17" d="M735.88,250.46h-.2a1,1,0,0,1-.8-1.1c0-.2.7-3.8,6.4-4.3a1,1,0,1,1,.2,2c-4.1.3-4.6,2.6-4.6,2.7A1.13,1.13,0,0,1,735.88,250.46Z"/><circle class="cls-5" cx="474.48" cy="620.76" r="52.2"/><polygon class="cls-15" points="500.68 645.06 472.98 626.86 472.98 582.36 475.88 582.36 475.88 625.26 502.18 642.66 500.68 645.06"/><path class="cls-18" d="M333.08,754.56c14.7,0,29.3.4,44,.8,7.1.2,14.3.5,21.5.3,7-.2,14.2-.6,21,1.3,5.8,1.6,12.1,4.9,15.1,10.4a12.52,12.52,0,0,1,1.2,8.9,10.93,10.93,0,0,1-5.4,6.5,21.75,21.75,0,0,1-9.7,2.1c-3.8.1-7.8,0-11.6-.1-7.7-.1-15.5-.2-23.1-.2-17.4-.2-34.8-.3-52.2-.5a1.5,1.5,0,0,0,0,3c16.4.2,32.8.3,49.2.5,8.1.1,16.1.2,24.1.2,4,0,8.1.1,12.1.1a27.63,27.63,0,0,0,10.7-1.7,16,16,0,0,0,7-5.3,13.25,13.25,0,0,0,2-9.1c-.8-6.7-5.6-11.7-11.3-14.7-6.3-3.3-13.4-4.4-20.5-4.4-3.7,0-7.6.2-11.3.2s-7.6-.1-11.4-.2c-17.1-.5-34.2-1-51.3-1-1.9,0-1.9,2.9-.1,2.9Z"/><path class="cls-18" d="M342.58,757.26a204.75,204.75,0,0,1,2.1,27.1,1.5,1.5,0,0,0,3,0,236.6,236.6,0,0,0-2.2-27.9c-.2-1.9-3.1-1.1-2.9.8Z"/><path class="cls-18" d="M357.68,770.16c16.2-.2,32.5-.4,48.6-.7a1.5,1.5,0,0,0,0-3c-16.2.2-32.5.4-48.6.7-1.9.1-1.9,3,0,3Z"/><path class="cls-18" d="M363.78,780.46c18.4-.7,36.7-.9,55.1-.5a1.5,1.5,0,0,0,0-3c-18.4-.3-36.7-.1-55.1.5-1.9.2-1.9,3.1,0,3Z"/><path class="cls-6" d="M435.18,730c-2.9-4.2-7.4-7-12.1-8.8-9.9-3.8-21-2-31.6-2.3-19.4-.5-37.6-1.2-58.2-1.2l.1,4a5.06,5.06,0,0,1,3-.1,20,20,0,0,1,2.6,1,5.21,5.21,0,0,1,4.7,4c3.2,4.4,3.8,10.8,3.2,16.3-.3,2.7-2.1,4.9-4.9,4.9h-7.9v2.3c27.6.3,55.1.5,82.6.8,3.5,0,7.2.1,10.7-.8s6.9-2.8,8.8-5.7C438.68,740.06,438,734.26,435.18,730Z"/><path class="cls-19" d="M355.18,730c16,.8,31.9.5,47.9.9,3.6.1,7.4.2,11,.5,1.9.2,1.9-2.8,0-3-7.3-.6-14.7-.7-22-.8-8.7-.1-17.2-.2-25.9-.4-3.7-.1-7.4-.1-11.1-.3-1.8.1-1.8,3,.1,3.1Z"/><path class="cls-19" d="M363.68,740.56c13.6.3,27.3.7,40.9,1,3.2.1,6.4.2,9.7.2a1.5,1.5,0,0,0,0-3c-13.6-.3-27.3-.7-40.9-1-3.2-.1-6.4-.2-9.7-.2a1.5,1.5,0,0,0,0,3Z"/><path class="cls-6" d="M486.08,787.46c-9.6-27.7-19.1-55.3-28.7-83a4,4,0,0,0-.7-1.3,2.69,2.69,0,0,0-2-.3c-8.5.8-16.8,2-25.2,3.5q14.55,40.8,29.8,81.3Z"/><path class="cls-19" d="M450.18,715.66a3.07,3.07,0,0,0-4.3,1.2c-1.1,1.8-.1,3.8,1.2,5.2a15.84,15.84,0,0,1,2.2,2.3c.6,1,.5,2.3.7,3.3a55.82,55.82,0,0,0,2.3,6.9c3.3,9.6,6.7,19.1,9.9,28.7,1.9,5.4,3.8,10.9,5.7,16.3.6,1.8,3.4,1,2.9-.8-3-8.6-5.9-17-9-25.6-1.5-4.2-3-8.5-4.4-12.7s-3.1-8.3-4.3-12.5c-.6-2.1-.5-4.2-2-6a23.91,23.91,0,0,1-2.2-2.3c-.2-.3-.6-.8-.5-1.2,0-.2.2-.4.3-.3,1.6,1.2,3.1-1.4,1.5-2.5Z"/><path class="cls-6" d="M435.58,765.36c-2.9-4.2-7.4-7-12.1-8.8-9.9-3.8-21-2-31.6-2.3-19.4-.5-37.6-1.2-58.2-1.2l.1,4a5.06,5.06,0,0,1,3-.1,20,20,0,0,1,2.6,1,5.21,5.21,0,0,1,4.7,4c3.2,4.4,3.8,10.8,3.2,16.3-.3,2.7-2.1,4.9-4.9,4.9h-7.9v2.3c27.6.3,55.1.5,82.6.8,3.5,0,7.2.1,10.7-.8s6.9-2.8,8.8-5.7C439.08,775.46,438.38,769.56,435.58,765.36Z"/><path class="cls-19" d="M358.28,765.26c16,.8,31.9.5,47.9.9,3.6.1,7.4.2,11,.5,1.9.2,1.9-2.8,0-3-7.3-.6-14.7-.7-22-.8-8.7-.1-17.2-.2-25.9-.4-3.7-.1-7.4-.1-11.1-.3-1.7,0-1.7,3,.1,3.1Z"/><path class="cls-19" d="M366.78,775.76c13.6.3,27.3.7,40.9,1,3.2.1,6.4.2,9.7.2a1.5,1.5,0,0,0,0-3c-13.6-.3-27.3-.7-40.9-1-3.2-.1-6.4-.2-9.7-.2-1.9.1-1.9,3,0,3Z"/><path class="cls-1" d="M1330.18,595.06H1293a9.6,9.6,0,0,1-9.6-9.6v-15.2a9.6,9.6,0,0,1,9.6-9.6h37.2a9.6,9.6,0,0,1,9.6,9.6v15.2A9.6,9.6,0,0,1,1330.18,595.06Z"/><rect class="cls-6" x="1203.98" y="547.76" width="51.4" height="62"/><polygon class="cls-7" points="1215.68 592.36 1214.38 590.86 1228.68 578.46 1228.68 553.86 1230.68 553.86 1230.68 579.36 1215.68 592.36"/><path class="cls-19" d="M1224.88,652.26a1,1,0,0,1-1-.9l-2.5-41.5a1,1,0,1,1,2-.2l2.5,41.5c.1.6-.4,1-1,1.1Z"/><path class="cls-19" d="M1243.68,665.46a1,1,0,0,1-1-1l-2.5-54.7a.94.94,0,0,1,1-1,1,1,0,0,1,1,1l2.5,54.7a1,1,0,0,1-1,1Z"/><path class="cls-19" d="M1226,665.46a4.8,4.8,0,0,1-4.8-4.8,4.8,4.8,0,1,1,4.8,4.8Zm0-7.7a2.9,2.9,0,1,0,2.9,2.9A3,3,0,0,0,1226,657.76Z"/><path class="cls-19" d="M1242.78,680.36a5.1,5.1,0,1,1,5.1-5.1A5.12,5.12,0,0,1,1242.78,680.36Zm0-8.3a3.2,3.2,0,1,0,3.2,3.2A3.36,3.36,0,0,0,1242.78,672.06Z"/></g><g id="background_people" data-name="background people"><path class="cls-20" d="M1015.08,359.46s7.9-7.7,0-17.6c0,0-32-10.6-24.5-66.6,0,0-1.5-33.9,38.2-39.9,0,0,41.8,1.7,41.8,41.4,0,0,3.5,46.5-12.1,54.9,0,0-9.1,9.5-18.1,10.9,0,0-3.3,11.5,1.9,16a5.85,5.85,0,0,0,1.7,1c7.6,3.2,39.2-10.7,41.3,31.9s4.5,72.7,4.5,72.7l-88.5,1.9-11.7-90.6C989.48,375.36,986.68,354.26,1015.08,359.46Z"/><path class="cls-12" d="M1307.08,651a8,8,0,1,1,8-8A8,8,0,0,1,1307.08,651Zm0-14a6,6,0,1,0,6,6A6,6,0,0,0,1307.08,637Z"/><path class="cls-20" d="M1232.68,357.66s7.9-7.5,0-17c0,0-32-10.3-24.5-64.5,0,0-1.5-32.8,38.2-38.6,0,0,41.8,1.6,41.8,40.1,0,0,3.5,45-12.1,53.2,0,0-9.1,9.2-18.1,10.6,0,0-3.3,11.1,1.9,15.5a5.85,5.85,0,0,0,1.7,1c7.6,3.1,39.2-10.4,41.3,30.9s4.5,70.4,4.5,70.4l-88.5,1.8-11.7-87.7C1207.08,373.06,1204.38,352.66,1232.68,357.66Z"/><path class="cls-19" d="M770.28,743.16a11.6,11.6,0,1,1,11.6-11.6A11.61,11.61,0,0,1,770.28,743.16Zm0-21.1a9.7,9.7,0,1,0,9.7,9.7A9.71,9.71,0,0,0,770.28,722.06Z"/><circle class="cls-21" cx="332.98" cy="545.16" r="10.6"/><circle class="cls-19" cx="847.08" cy="560.16" r="5.3"/><path class="cls-12" d="M315.28,208.76a7.8,7.8,0,1,1,7.8-7.8A7.75,7.75,0,0,1,315.28,208.76Zm0-13.6a5.8,5.8,0,1,0,5.8,5.8A5.74,5.74,0,0,0,315.28,195.16Z"/><path class="cls-19" d="M824.78,771.46a112.91,112.91,0,0,1,15.4-1.3c6.4-.4,12.9-.6,19.4-.8,2.5-.1,4.9-.2,7.4-.2,1,0,1-3,0-3-5.1.2-10.2.3-15.5.5-6.4.3-12.9.5-19.3,1.1-2.5.2-4.9.4-7.4.8-.9.1-.9,3.1,0,2.9Z"/><path class="cls-19" d="M827.48,782.36c7.5-.9,15.1-1.1,22.6-1.4,9.4-.4,18.7-.6,28.1-.8,3.5-.1,7.1-.2,10.6-.2a1.5,1.5,0,0,0,0-3c-16.8.4-33.8.7-50.6,1.6-3.5.2-7.1.4-10.6.8-2,.4-2,3.3-.1,3Z"/><g id="brain_screen" data-name="brain screen"><path class="cls-22" d="M840.28,363.66H593.88a13.87,13.87,0,0,1-13.9-13.9v-144a13.87,13.87,0,0,1,13.9-13.9h246.3a13.87,13.87,0,0,1,13.9,13.9v144.1A13.76,13.76,0,0,1,840.28,363.66Z"/><path class="cls-23" d="M641.28,294.36c-.7-2.5-5.4-20.5,4.5-27.2a1.88,1.88,0,0,0,.6-2.5c-2.8-5.6-9.9-24.1,16.5-28.7h0s24.6-19.3,34.3-7.1a1.94,1.94,0,0,0,2.8.3c4.3-3.6,17.1-11.8,30.9,6a2.34,2.34,0,0,0,1.8.8c5.5-.7,30.3-2.1,24.2,26.9a2,2,0,0,0,1.1,2.2c6.4,2.9,30.3,15.6,3.8,38.2a2,2,0,0,0-.7,1.6c.1,2.7,0,10.3-6.2,12.1a2,2,0,0,0-1.4,2c.2,3.3,1,11,4.2,16a3.07,3.07,0,0,1-2.1,4.7l-3,.6a2,2,0,0,1-2.2-1.2l-5.2-14.2a2,2,0,0,0-2.8-1c-3.9,2.4-13.6,6.1-23.3-5.7a1.7,1.7,0,0,0-2.2-.5c-6.1,2.6-31.8,11.5-39.2-10.5a1.91,1.91,0,0,0-2.2-1.3c-5.8,1.1-25.6,3.4-34.2-10.9C641.48,294.56,641.38,294.56,641.28,294.36Z"/><path class="cls-17" d="M756.18,304.46c-5.9,0-10.4-1.5-13.3-4.4a13,13,0,0,1-3.5-9.8,1,1,0,1,1,2,.2,11,11,0,0,0,3,8.3c3.2,3.2,8.9,4.4,16.6,3.5a.94.94,0,0,1,1.1.9,1,1,0,0,1-.9,1.1C759.48,304.36,757.78,304.46,756.18,304.46Z"/><path class="cls-17" d="M708.08,321.36a1.06,1.06,0,0,1-1-.9,1,1,0,0,1,.9-1.1c10.2-1.1,35.5-19.5,35.6-19.7a1,1,0,1,1,1.2,1.6c-1.1.8-25.8,19.1-36.7,20.1Z"/><path class="cls-17" d="M677.28,306.46h0a1,1,0,0,1-1-1.1c.1-1,1.9-24,42.7-30.2.5-2.5,2.1-11.4-.1-18.6a1,1,0,0,1,1.9-.5c2.8,8.9.1,19.8,0,20.3a1.09,1.09,0,0,1-.8.8c-40,5.8-41.8,28.4-41.8,28.6S677.88,306.46,677.28,306.46Z"/><path class="cls-17" d="M697.48,305.76c-.2,0-.4,0-.5-.2a1,1,0,0,1-.3-1.4c8.4-13.5,22.9-12.6,26.2-12.2,5.2-7.6,10.9-11.7,17.1-12.1,8.5-.6,14.4,5.9,14.6,6.1a1,1,0,1,1-1.5,1.3c-.1-.1-5.6-6-13-5.5-5.6.4-11,4.4-16,11.8a1,1,0,0,1-1,.4c-.7-.1-16.1-2.8-24.8,11.2A.94.94,0,0,1,697.48,305.76Z"/><path class="cls-17" d="M662.48,248.86a1.19,1.19,0,0,1-.9-.5c-.2-.3-3.8-6.5-2.1-10.4a5.27,5.27,0,0,1,4-3,1,1,0,0,1,1.2.8,1,1,0,0,1-.8,1.2,3.67,3.67,0,0,0-2.7,1.8c-1.1,2.5,1,7.1,2,8.6a1.08,1.08,0,0,1-.3,1.4C662.78,248.76,662.58,248.86,662.48,248.86Z"/><path class="cls-17" d="M652.28,272.56h0c-1.6-.1-3.2-2-5.3-5.9a1,1,0,0,1,1.8-1c2.2,4,3.2,4.7,3.5,4.8a.91.91,0,0,1,1.2,0,1.08,1.08,0,0,1,.2,1.4A1.75,1.75,0,0,1,652.28,272.56Zm-.3-1.8Z"/><path class="cls-17" d="M743.08,281.86h0a1.09,1.09,0,0,1-1-1.1c0-.2,1.5-17.9-8.1-21.1a1,1,0,0,1-.6-.5,1.1,1.1,0,0,1,0-.8c0-.1,2.6-6.6-.7-11.1-2.7-3.6-8.3-5.1-16.6-4.5-1.1.3-12.9,3.6-15.7,11.1-1.3,3.4-.4,7.4,2.6,11.7a.75.75,0,0,1,.1.8,21.9,21.9,0,0,0,1,12.5,1,1,0,0,1-1.9.7,24.64,24.64,0,0,1-1.2-13.3c-3.2-4.7-4-9.2-2.6-13.2,3.2-8.8,16.5-12.2,17.1-12.3h.2c9.3-.7,15.5,1.1,18.5,5.3,3.2,4.3,2,9.8,1.3,12,9.9,4.3,8.6,22,8.5,22.7S743.58,281.86,743.08,281.86Z"/><path class="cls-17" d="M685.78,288.06a1,1,0,0,1-.8-.5c-8.6-13.1-4.5-20.7-2.7-23.1-4.1-3.2-6.1-6.6-6-10.3.2-7.4,8.7-12.9,9-13.2a1,1,0,0,1,1.1,1.7c-.1.1-8,5.2-8.1,11.5-.1,3.2,2,6.4,6.1,9.3a1.23,1.23,0,0,1,.4.8,1.14,1.14,0,0,1-.3.8c-.3.3-7.3,7.1,2.2,21.6a1,1,0,0,1-.3,1.4Z"/><path class="cls-17" d="M658.58,285h0a1.09,1.09,0,0,1-1-1.1c0-.4,1.3-10.6,23.2-9.8a1,1,0,0,1,0,2c-19.9-.7-21.2,8.1-21.3,8.1A.88.88,0,0,1,658.58,285Z"/><path class="cls-17" d="M669.48,261c-8.9,0-14.4-6.6-14.4-6.6a1,1,0,1,1,1.5-1.3,17.18,17.18,0,0,0,20.9,3.9,1,1,0,0,1,.8,1.8A19,19,0,0,1,669.48,261Z"/><path class="cls-4" d="M834.18,346.16H794a1,1,0,0,1,0-2h40.2a1,1,0,0,1,0,2Z"/><path class="cls-4" d="M819.08,338h-34.8a1,1,0,0,1,0-2h34.9a.94.94,0,0,1,1,1A1.09,1.09,0,0,1,819.08,338Z"/><path class="cls-19" d="M601.28,345a5.8,5.8,0,1,1,5.8-5.8A5.87,5.87,0,0,1,601.28,345Zm0-10.6a4.8,4.8,0,0,0-4.8,4.8,4.87,4.87,0,0,0,4.8,4.8,4.8,4.8,0,0,0,4.8-4.8A4.87,4.87,0,0,0,601.28,334.36Z"/><path class="cls-12" d="M838.68,219.66a7.3,7.3,0,1,1,7.3-7.3A7.28,7.28,0,0,1,838.68,219.66Zm0-12.6a5.27,5.27,0,0,0-5.3,5.3,5.3,5.3,0,1,0,5.3-5.3Z"/></g><path class="cls-19" d="M571.88,171.56c1.3,4,2.7,8.2,3.9,12.2a1.36,1.36,0,0,0,1.8,1,1.4,1.4,0,0,0,1-1.8c-1.3-4-2.7-8.2-3.9-12.2a1.36,1.36,0,0,0-1.8-1,1.47,1.47,0,0,0-1,1.8Z"/><path class="cls-19" d="M561.58,193.76c3.2.6,6.5,1.2,9.7,1.7.8.1,1.7-.2,1.8-1a1.43,1.43,0,0,0-1-1.8c-3.2-.6-6.5-1.2-9.7-1.7-.8-.1-1.7.2-1.8,1a1.31,1.31,0,0,0,1,1.8Z"/><path class="cls-19" d="M871.58,371.86c-4.2-.9-8.4-1.8-12.6-2.6a1.46,1.46,0,0,1-1.2-1.7,1.41,1.41,0,0,1,1.7-1.2c4.2.9,8.4,1.8,12.6,2.6a1.46,1.46,0,0,1,1.2,1.7,1.41,1.41,0,0,1-1.7,1.2Z"/><path class="cls-19" d="M850.68,383.56c-.9-3.2-1.9-6.3-2.8-9.6-.2-.8,0-1.7.8-1.9s1.7,0,1.9.8c.9,3.2,1.9,6.3,2.8,9.6.2.8,0,1.7-.8,1.9s-1.8,0-1.9-.8Z"/></g><g id="person_1" data-name="person 1"><path class="cls-24" d="M1164.38,318s32.9-.3,24.7,27.1-38.6,6.4-38.6,6.4l-1.2-22.5"/><path class="cls-24" d="M1081.88,303.16c-5.7,1.7-36.4-37.5,12.6-57.4,0,0,46.7-30,71.1,22.4,0,0,6.6,22.7.3,42.2,0,0-10-5.9-17.7,7.5,0,0-3.9-26.5-7.1-27.3,0,0-28.9-12.8-38.3-25.3,0,0-16.1,24.4-26.9,24.4Z"/><path class="cls-25" d="M1165.88,310.76a8.41,8.41,0,0,0-4.1-4.4c-.4-.1-2.8-.5-5.9,2.7-2.2,2.2-3.7,3.2-5.6,5.7a7.1,7.1,0,0,1-1.2,1.3.78.78,0,0,1-1.3-.7,23.89,23.89,0,0,0-1.2-9.3c-1.8-5.2-1.8-10.9-2.9-16.3a1.42,1.42,0,0,0-.2-.6c-.3-.4-1.2-.4-1.6-.5l-2-.6c-2-.6-3.8-1.2-5.8-1.9a84.62,84.62,0,0,1-15.8-7.5,58.36,58.36,0,0,1-15.6-13.3c-.1-.1-.9-1-.8-1.1s-5.1,13.9-23.5,22c-6.8,3-.6,12.3-.5,17.1.1,2.7.2,5.3.1,8a50.09,50.09,0,0,0,.7,13.4,48.66,48.66,0,0,0,8.2,18.8,47.14,47.14,0,0,0,9.1,9.3c1.6,1.2,13.3,11.7,26.4,3.9,0,0,23.6-14,26.4-18.5,1.2-1.9,1.8-4.8,2.1-7.6,1.3-1.4,2.4-3,3.6-4.3a13.41,13.41,0,0,1,5.4-3.7C1163.78,320.46,1168,315.36,1165.88,310.76Z"/><path class="cls-25" d="M1152.78,366.36c-.4-.2-2-8.9-2.3-14.7,0,0,.1-12.8-.2-22.5-.1-2.2-3.4-3.3-5.2-2.2l-18.2,12a2.85,2.85,0,0,0-1.1,3.2c.6,1.9-5.9,13.6-5.9,13.6s-9.1,12.5-25.3,11.4c0,0-8.6,22.3,19.9,33.5l37.9-32.9-.3-.6A5.72,5.72,0,0,0,1152.78,366.36Z"/><path class="cls-26" d="M1116.28,311.16a8.6,8.6,0,0,1,.1,1.6,4.42,4.42,0,0,1-.2,2,2,2,0,0,1-1.5,1.2,1.93,1.93,0,0,1-1.8-.6c-.3-.3-.5-.7-.9-.9a27.48,27.48,0,0,1,.2-4.1,2.35,2.35,0,0,1,.2-.8c.2-.5.8-.8,1.1-1.3C1115.68,307.46,1116.08,309.36,1116.28,311.16Z"/><path class="cls-26" d="M1093,307a27,27,0,0,0,.4,2.8,3.05,3.05,0,0,1-.8,2.6,2.72,2.72,0,0,1-1.7.6,2.08,2.08,0,0,1-1.3-.3,2.8,2.8,0,0,1-.7-2.2v-1.6a3,3,0,0,1,.2-1.3c.2-.5.7-.8.9-1.2.4-.6.6-1.7,1.6-1.6S1092.88,306.16,1093,307Z"/><path class="cls-26" d="M1097.78,295.66a1.71,1.71,0,0,1-1.5,1.6c-.8,0-1.3-.7-1.9-1.1-1.5-1.1-3.4-1-5.3-.6-1.2.3-2.6.7-3.2,1.8a11.73,11.73,0,0,0-.5,1.1,1.33,1.33,0,0,1-.9.6,3.76,3.76,0,0,1,1.2-3.5,6.56,6.56,0,0,1,3-1.5,11.81,11.81,0,0,1,6.5-.3C1096.28,293.86,1098.18,293.86,1097.78,295.66Z"/><path class="cls-26" d="M1114,295.16a4.38,4.38,0,0,1,2.3-.6c2.7,0,5.5,0,7.8,1.3a19.52,19.52,0,0,1,2.3,1.7,4.85,4.85,0,0,1,2,2.7v.5c-.1.3-.5.3-.8.1a2,2,0,0,1-.6-.7,8,8,0,0,0-9.2-3.2c-.7.3-2.3,1.3-3.1,1S1113.88,295.86,1114,295.16Z"/><path class="cls-26" d="M1104.78,329.06a14.23,14.23,0,0,1-1.5-.1h-.2c-.2-.1-4.6-1.6-5.8-4.7-1-2.9,2.3-15.3,3-17.7a1,1,0,1,1,1.9.5c-1.6,5.8-3.6,14.8-3.1,16.4.7,1.8,3.3,3.1,4.4,3.4,1.1.1,3.9.2,4.6-1.3a1,1,0,0,1,1.8.8C1109.28,328.66,1106.58,329.06,1104.78,329.06Z"/><path class="cls-26" d="M1102.68,338.46c5.7,1.5,11.4-2.3,13.5-3.9a.22.22,0,0,1,.3.3c-1.2,2.2-5.6,11.6-9.2,10.5-.7-.2-4.8-4.6-5.2-6.9"/><path class="cls-26" d="M1154.08,321.46a10.22,10.22,0,0,1-3.5-.8.47.47,0,1,1,.3-.9c2.4.8,4,.9,4.6.2s0-2.8-.3-3.3c-.1-.2-.1-.4.1-.5l3.6-4.2a.5.5,0,0,1,.8.6l-3.4,3.9c.4.8,1.1,3,0,4.1A2.79,2.79,0,0,1,1154.08,321.46Z"/><path class="cls-27" d="M1124.18,355.36c-3.9,1.4-12.5,7.9-16.1,9.7,5,1.2,11,4.2,15.9,1.5,8.3-9.2,16.4-18.5,24.8-27.7C1140.58,344.36,1132.48,350.06,1124.18,355.36Z"/><path class="cls-23" d="M1073.38,436.56l79.4-70.4s22.3.8,31.7,2.5c8,1.5-30.6,99.5-30.6,99.5l-70.3-.3"/><path class="cls-22" d="M1094.58,367.26s-9,21.9,19.9,33.5l-47.1,41.2-30.4-14.5,7.9-16.6s.4-22.1,11.6-34.8a25.1,25.1,0,0,1,19-8.8Z"/><path class="cls-19" d="M1077.78,466.26a.91.91,0,0,1-.7-.3c-8.8-9.2-3.3-66-3.2-68.3a1,1,0,1,1,2,.2c-1.6,16.2-4.1,59.8,2.6,66.8a1,1,0,0,1,0,1.4A1.85,1.85,0,0,1,1077.78,466.26Z"/><path class="cls-22" d="M1184.48,368.66s27.9-6.2,28.1,35.4l4.6,25.9s-21.1,15.6-31.6,7.5l3.5,29.2-35.2,1.5C1153.78,468.16,1188.38,377.16,1184.48,368.66Z"/><path class="cls-25" d="M1183.48,437.36s6,1.4,31.6-7.5l6.8,35.3-33,1.4Z"/><path class="cls-19" d="M1183.48,438.36a1.06,1.06,0,0,1-1-.9c0-.2-2.2-19.2-3.2-24.7a1,1,0,0,1,2-.4c1.1,5.5,3.2,24,3.2,24.8.1.5-.3,1-1,1.2Z"/><circle class="cls-28" cx="1105.78" cy="291.86" r="2.5"/></g><g id="person_2" data-name="person 2"><path class="cls-29" d="M961.38,777.46c-8.8-13.6-35.5-54.5-45-66.4a4.91,4.91,0,0,0-6.7-1.1c-5.5,3.6-16.3,10.9-22.1,15.1a5,5,0,0,0-1.3,6.7l41.6,65.5a5,5,0,0,0,6.8,1.7l24.9-14.4A4.93,4.93,0,0,0,961.38,777.46Z"/><path class="cls-30" d="M950.28,775.16c-.9-1.8-2.1-2-2.8-4.1s.1-2.7-.3-4.3c-.6-2.6-2.8-3.6-4.7-5.3a20.1,20.1,0,0,1-6.1-9.5c-10.2-2.9-23.5,20.9-23.5,20.9-4.3,6.4,11,25.6,14.3,29.5a5.24,5.24,0,0,1,5.5-2.1,22,22,0,0,1,4.1,1.2,2.35,2.35,0,0,1,.8-.2,4.51,4.51,0,0,1,1-1.4,9.51,9.51,0,0,1,2-1.5,8.88,8.88,0,0,1,5.9-4.5c.2,0,.4-.1.6-.1.3-.8.6-1.6.8-2.2a65,65,0,0,0,2.6-9.4C951.08,778,950.88,776.46,950.28,775.16Z"/><path class="cls-31" d="M937.88,752.16c-.9-1.4-3.2-.4-2.2,1.1.7,1,.1,2.4-.3,3.2a23.87,23.87,0,0,1-1.6,3.2,40.28,40.28,0,0,1-7.1,10.3c-.5.4-.1,1.3.4,1.7a1.2,1.2,0,0,0,1.8-.3,44.69,44.69,0,0,0,7.5-11c1.2-2.2,3.3-5.6,1.5-8.2Z"/><path class="cls-31" d="M936.08,756.66c-.9,1.6,1.4,3.1,2.3,1.6.2-.3.5-.2.8-.1s.6.6.7,1.1c.3,1.5-.3,3.2-.7,4.7a34.19,34.19,0,0,1-4.7,10.5,1.37,1.37,0,1,0,2.3,1.5,36.29,36.29,0,0,0,5.7-14.6c.4-2,.2-4.3-1.7-5.6a3.29,3.29,0,0,0-4.7.9Z"/><path class="cls-31" d="M942.58,761.76a1.44,1.44,0,0,0,1.2,2.6c-.2.1,0,0,.3.1s.4.1.6.3a2.13,2.13,0,0,1,.9,1,3.75,3.75,0,0,1,0,2.1,20,20,0,0,1-.5,2.6,29.84,29.84,0,0,1-5,9.7,1.35,1.35,0,0,0,.4,1.9,1.27,1.27,0,0,0,1.9-.4,28.54,28.54,0,0,0,5.9-12.7c.3-1.9.6-4-1-5.5-1.2-1.3-3.1-2.4-4.7-1.7Z"/><path class="cls-31" d="M947,772.06c-1.5.7-.1,2.8,1.3,2.2-.2.1,0,0,.3.1s.4.1.6.3c.4.3.8.5,1,.9a2.82,2.82,0,0,1,.1,1.8,8.51,8.51,0,0,1-.4,2.2,20.27,20.27,0,0,1-4.4,8c-.4.4-.1,1.3.4,1.6a1.27,1.27,0,0,0,1.8-.2,20,20,0,0,0,5.2-10.6c.2-1.6.4-3.4-1.3-4.7-1.3-1.1-3.2-2.2-4.6-1.6Z"/><path class="cls-30" d="M1084.58,689.56a2.6,2.6,0,0,0-.9,1.6c-.9,6.7-2.1,12.6-3.4,16.1-3.6,9.1,8.9,24.9,8.6,25.5-20.6,34-42.9,28-46.2,22.7-.4-.6.2-8.5.4-9.2,1.5-5.1,6.3-17.8-1-17.4-8.4,3.5-30.1-17.4-33.2-26.2-4.7-13.8.3-37.5,1.4-42a2.57,2.57,0,0,0-.1-1.5l-7.5-19c0-.1-.1-.2-.1-.3l-4.7-8.7c-7-14.6,8.6-13.1,21.1-26.7,11.1-12,54.7,1.7,64.3,4.9a2.62,2.62,0,0,1,1.7,2.7c-.9,7.4-3.6,33.8-1.1,42.8a51.23,51.23,0,0,1,1.3,10.4,2.5,2.5,0,0,0,2.4,2.4C1108.28,669.16,1089.78,685.36,1084.58,689.56Z"/><path class="cls-32" d="M985.48,674.26a2.47,2.47,0,0,0-1.9-2.5,36.88,36.88,0,0,1-3.8-1.3,20.29,20.29,0,0,1-2.6-1.1,3.75,3.75,0,0,1-2.1-1.6,11.51,11.51,0,0,1-1.2-2.5,18,18,0,0,1-1.1-5.7,20.25,20.25,0,0,1,2-10.3,4.89,4.89,0,0,1,1.4-1.8,2.46,2.46,0,0,0,.6-3.1.1.1,0,0,0-.1-.1,17.66,17.66,0,0,1-1.5-4.2c-.4-1.7-1.2-4.1-.1-5.6a15.84,15.84,0,0,1,3-2.8c.8-.7,1.6-1.3,2.4-2,.2-.2,1.1-.8,1-1.2,0,0-5.5-16.1,5.7-19.2a2.52,2.52,0,0,0,1.9-2.7c-.3-3.1-.1-8.5,4.8-11.8A2.65,2.65,0,0,0,995,593c.4-4,2.8-16.5,14.3-12.6a2.44,2.44,0,0,0,2.9-1.1c2.3-3.6,8.7-11.1,22.4-7.3a2.42,2.42,0,0,0,2.7-1c2.9-4.2,13.5-14,40.9,11.1a2.38,2.38,0,0,0,1.1.6c4.7,1.1,35.6,9.7,33.2,44.6-1.9,26.6-2.2,16-2.3,7.4a2.48,2.48,0,0,1,4.6-1.3c2.4,4,3.5,9.7-2.9,14.4a2.46,2.46,0,0,0-.7,3.1c1.9,3.7,5.2,11.7.9,13.4a2.55,2.55,0,0,0-1.5,2.6c.4,3.4.3,9.7-5.9,11a2.49,2.49,0,0,0-1.8,1.9c-.7,2.9-2.6,8.8-7.3,9.7a2.57,2.57,0,0,0-1.8,1.7c-.8,2.6-3,4-5.4,4.9-1,.4-6.4,2.3-6.9,1.3s-1.3-2.3-1.7-3.4c-.4-1.4.3-3.4.8-4.7,1.2-3.2,6-3.6,7.8-5.1,5.1-4.3,5.9-13.8,3.3-15.6s-8.1,3.6-9.6,2.2c-1.3-1.3,3.6-4.9,2.8-10-.6-3.8-2-6.1-5.7-11.7a2.25,2.25,0,0,1-.4-1.9l.9-4.3a2.49,2.49,0,0,0-2.4-3c-3.9-.1-10.4-1.9-10.3-12.8a2.5,2.5,0,0,0-2.2-2.5c-2.8-.3-7.8-1.8-13-8.4a2.35,2.35,0,0,0-3.5-.3c-1.9,1.6-4.6,3.2-7.1,1a2.35,2.35,0,0,0-3.7.8c-1.9,3.4-5,7.7-8.4,5.5a2.4,2.4,0,0,0-3.5.9c-2.3,4.2-7,11-12.2,5.9a2.4,2.4,0,0,0-3.8.5c-2.8,4.8-6.9,14.5-1.6,21.7,5.7,7.9.9,25.3-.9,30.1-.3.8-2,1.1-2.9,1.2C999.48,684.26,984.78,685.66,985.48,674.26Z"/><path class="cls-33" d="M1042.18,728.66c9,0,37.4-17.8,37.4-17.8l-34.4,27.8S1047.18,730.26,1042.18,728.66Z"/><path class="cls-34" d="M1082.88,682.06a.5.5,0,0,1,0-1,3.08,3.08,0,0,0,2-.9,2.88,2.88,0,0,0,.9-2.1,1.6,1.6,0,0,0-.4-1.1.76.76,0,0,0-.4-.2,1.76,1.76,0,0,1-1-.9.44.44,0,0,1,.1-.5,12.42,12.42,0,0,1,4.8-3.4.47.47,0,0,1,.3.9,9.93,9.93,0,0,0-4.1,2.9c.1.1.2.1.3.2a2.09,2.09,0,0,1,.6.4,2.41,2.41,0,0,1,.8,1.9,4.3,4.3,0,0,1-1.1,2.8,5.93,5.93,0,0,1-2.8,1Z"/><path class="cls-35" d="M1171.88,861.66l-160.6.1h-19.9c-4.2-.1-7.8-.2-10.7-.4-3.7-.1-4.1.4-5.7.4h-1.4c-9.3.2-13.6.1-20.9.4a4.65,4.65,0,0,1-3-1.1c-3.2-2.4-6.1-8.2-7.9-10.7a140,140,0,0,1-9.7-15.2c-5.7-10.3-9.3-21.8-7.9-33.7a2.92,2.92,0,0,1,2.9-2.5c2.9.1,8.7-1.5,19-11.2a2.8,2.8,0,0,1,4.7,1.6,2.62,2.62,0,0,0,.6,1.3c7.6,9.5,15,17.3,22.3,25.4v-21.3c0-37.2,16.2-62.1,27.3-63.3a102.65,102.65,0,0,1,44.2,5.3c11.3,18.6,21,8.7,31,2.4,6.6-4.2,7.7-11.2,12.7-10l37.2,5.8C1151.38,738.86,1171.88,861.66,1171.88,861.66Z"/><path class="cls-32" d="M1035.08,645.26c-.4.6-1.4,1.1-1.8.5-.1-.2-.1-.4-.3-.5a2.19,2.19,0,0,0-.5-.3,8,8,0,0,0-5.5-.2c-2.2.8-3.9,2.5-5.6,4a12.89,12.89,0,0,1,8.4-8C1033.38,639.76,1038.38,640.76,1035.08,645.26Z"/><path class="cls-32" d="M1052,648.66c.3.7,1.1,1.4,1.6.9.2-.1.2-.3.4-.4s.3-.1.5-.2a7.56,7.56,0,0,1,5.3,1.3,13.43,13.43,0,0,1,4.3,5.4,13,13,0,0,0-6-9.9C1055.18,643.76,1050.08,643.46,1052,648.66Z"/><path class="cls-32" d="M1038.18,687.36a11.86,11.86,0,0,1-4.6-1c-3.2-1.4-5.1-3.7-5.2-6.4-.2-4.5,2.6-9.2,4.6-12.9l.2-.3a77.84,77.84,0,0,1,6.6-9.6,1,1,0,1,1,1.5,1.3,69.41,69.41,0,0,0-6.4,9.3l-.2.3c-2.1,3.5-4.5,7.9-4.4,11.8.1,2.2,2.2,3.8,4,4.6,2.8,1.2,5.7,1.1,7.2-.3a1,1,0,0,1,1.3,1.5A6.58,6.58,0,0,1,1038.18,687.36Z"/><path class="cls-32" d="M1025.28,654.06a7.67,7.67,0,0,0-1.5,7.4c.2.6.5,1.2,1.1,1.3,1,.3,1.8-.9,2.1-1.9a22.68,22.68,0,0,0,.6-2.5,6.16,6.16,0,0,0-.1-2.7,2.36,2.36,0,0,0-1.8-1.8c-.2.2-.4.3-.6.5"/><path class="cls-32" d="M1051.08,659.56a7.67,7.67,0,0,0-1.5,7.4c.2.6.5,1.2,1.1,1.3,1,.3,1.8-.9,2.1-1.9a22.68,22.68,0,0,0,.6-2.5,6.16,6.16,0,0,0-.1-2.7,2.36,2.36,0,0,0-1.8-1.8c-.2.2-.4.3-.6.5"/><path class="cls-32" d="M1037.28,702a16.73,16.73,0,0,1-6.4-1.1,1,1,0,1,1,.7-1.9c.5.2,11.5,4.2,17.5-5.7a1,1,0,0,1,1.7,1.1A15.13,15.13,0,0,1,1037.28,702Z"/><path class="cls-16" d="M1080.48,775.16a.78.78,0,0,1-.7-.3l-22.5-25-27.6,19.1a1.08,1.08,0,0,1-1.1,0,1,1,0,0,1-.4-1l6.8-32.3a1,1,0,1,1,2,.4l-6.2,29.8,26.3-18.2a1,1,0,0,1,1.3.2l21.7,24.1,7.1-40.6a1,1,0,0,1,2,.4l-7.5,42.5a1,1,0,0,1-.7.8A1.34,1.34,0,0,1,1080.48,775.16Z"/><path class="cls-16" d="M1052.78,863.26a1,1,0,0,1-1-.9c0-.3-1.5-27.9-1.7-55.5-.3-50.8,3.8-57.9,7-58.9a1,1,0,1,1,.5,1.9c-6.5,2-6.9,59.5-3.9,112.5.2.4-.3.9-.9.9Z"/><path class="cls-16" d="M1089.38,816.16a.94.94,0,0,1-1-1v-15.1a.94.94,0,0,1,1-1h7a.94.94,0,0,1,1,1v13.4a1,1,0,0,1-2,0v-12.4h-5v14.1A1,1,0,0,1,1089.38,816.16Z"/><path class="cls-16" d="M1076.88,817h0a1,1,0,0,1-1.1-1,1.08,1.08,0,0,1,1-1h.1a308.5,308.5,0,0,0,35.6-2.7.94.94,0,0,1,1.1.9,1,1,0,0,1-.9,1.1A311.86,311.86,0,0,1,1076.88,817Z"/><path class="cls-16" d="M1085.48,823.76a73.56,73.56,0,0,1-8.9-.5,1,1,0,1,1,.3-1.9c.2,0,18,2.5,35.4-4.1a1,1,0,1,1,.7,1.9A82.38,82.38,0,0,1,1085.48,823.76Z"/><path class="cls-16" d="M1132.08,862.86h-.3c-1.7-.5-6.9-2.1-12.2-40.9-2.6-18.9-3.9-37.7-3.9-37.9a1.09,1.09,0,0,1,.9-1.1,1.17,1.17,0,0,1,1.1.9c2.1,28.8,8,75,14.8,77a1.09,1.09,0,0,1,.7,1.2A1.4,1.4,0,0,1,1132.08,862.86Z"/><path class="cls-16" d="M1009.78,862.66h0c-.6-.3-1-1.8-1-3.2l2.8-63.9c.1-1.5.6-2.6,1.1-2.6.5.3.9,1.8.9,3.2l-2.8,63.9C1010.68,861.46,1010.28,862.66,1009.78,862.66Z"/><path class="cls-36" d="M973.68,817.16s27.5,23.2,36,45.5"/><circle class="cls-35" cx="908.78" cy="732.36" r="3.3"/><path class="cls-37" d="M1093.78,683.76a11.43,11.43,0,0,1-3.2,2.2,7,7,0,0,1-1.9.6c-.6,0-1.1-.1-1.7-.1.2,0-.6-.6-.6-.6-.2-.3-.2-.3.1-.6l1.2-.9a13.49,13.49,0,0,0,3.3-3.5,9,9,0,0,0,1.3-3,18.21,18.21,0,0,0,.7-5.4c0-1.8-.1-2.5.1-2.9h-.1a4.2,4.2,0,0,0-1.9-1.9,4.45,4.45,0,0,0-3-.1,7.49,7.49,0,0,0-4.1,3.1,5.23,5.23,0,0,0-.7,1.5,6.11,6.11,0,0,0,0,3.8s2.5-.4,1.6,2.7c0,0-2,2.9-3.4,1.3,0,0-.6-.5.2-1.2,0,0,1.5-.2,1.2-2.2,0,0-1.7-2.8.8-7.2a11.34,11.34,0,0,1,2.4-2.5,5.28,5.28,0,0,1,2.4-1.1,5.56,5.56,0,0,1,3.4.8,5.2,5.2,0,0,1,1.9,2c.1.1.2.3.3.4.3.2.7.1,1,.2s.7.3,1,.4a3.53,3.53,0,0,1,1.5,1.7,3.08,3.08,0,0,1,.2,1.6A14.82,14.82,0,0,1,1093.78,683.76Z"/><path class="cls-11" d="M1070.78,671.66c-.1-.1-.1-.2-.2-.3l-.2-.2"/></g><g id="person_4" data-name="person 4"><path class="cls-38" d="M646.48,350.56c1.8,3.9-10,21.3-10,21.3a3.33,3.33,0,0,0,3.6,1.2c3.2.6,5.3,3.7,5.3,3.7l4.5,2.5s1.8,2.5,2.5,7.6c.4,2.9-1.5,4.9-3.2,6.2a2.8,2.8,0,0,1-1.2,3.3,6.89,6.89,0,0,1,.3.8c3.3,8.9-8,16.6-8,16.6l-2.6,16.2-31.1-13.2c-1-2.1,1.6-10.4,1.6-10.4.6-12.5,9.1-28.6,9.1-28.6C633.38,355.86,643.18,343.36,646.48,350.56Z"/><rect class="cls-19" x="614.43" y="342.48" width="87.9" height="3" transform="matrix(0.58, -0.82, 0.82, 0.58, -3.36, 681.46)"/><path class="cls-39" d="M633.58,389.26a6.88,6.88,0,0,1-1.3-.2,1,1,0,0,1,.5-1.9,2.59,2.59,0,0,0,2.4-.5c2.6-2.2,3.2-9.7,3-12.9a1.09,1.09,0,0,1,.9-1.1,1,1,0,0,1,1.1.9c.2,2.2.1,11.4-3.6,14.6A4.82,4.82,0,0,1,633.58,389.26Z"/><path class="cls-39" d="M638.58,392.76c-2.5,0-3.9-2.5-4.4-4.9a1,1,0,0,1,1.9-.5c.1.6,1,3.6,2.9,3.3a4.85,4.85,0,0,0,2.2-1.2c3.6-3.1,5.9-8.8,3-13.2-.4-.5-.8-1.1-1.2-1.5a1,1,0,0,1,1.4-1.4,8.62,8.62,0,0,1,1.4,1.8c3.5,5.4,1.1,12-3.3,15.8a6.59,6.59,0,0,1-3.2,1.7A2,2,0,0,1,638.58,392.76Z"/><path class="cls-39" d="M645.08,398a3.53,3.53,0,0,1-1.7-.4,6.46,6.46,0,0,1-3.2-3.8,1,1,0,1,1,1.9-.7,4.65,4.65,0,0,0,2.2,2.8c1.4.6,3.2-.5,4.1-1.8,3.1-3.7,3.2-10.2.5-13.8a1,1,0,0,1,1.6-1.2c3.3,4.2,3.2,11.8-.5,16.2A6.63,6.63,0,0,1,645.08,398Z"/><path class="cls-39" d="M626.38,409.26a1,1,0,0,1-.9-.6,1,1,0,0,1,.5-1.3c3.5-1.8,5.6-3.9,5.9-6.6.8-5.7-6.1-11.8-6.1-11.9a.91.91,0,0,1-.3-1,1,1,0,0,1,.7-.7c3-.8,7-11.3,7-15.5,0-3.4-2.1-2.6-2.3-2.7-2.1.9-9.6,10.5-15.7,19.2a1,1,0,1,1-1.6-1.2c5.2-7.5,14.5-20.1,17.4-20.1h0c.3,0,3,.5,3.4,1.9a7.43,7.43,0,0,1,0,3.4c-.4,2-2.4,12.9-6.4,16,2.1,2.1,6.5,7.3,5.8,12.6-.5,3.3-2.9,6-7,8.1C626.68,409.26,626.58,409.26,626.38,409.26Z"/><path class="cls-38" d="M490.58,356.06l-1.2,6.2-4.3,22.3s13.4,29.9,42.2,10l-1.3-17.5Z"/><path class="cls-40" d="M426.68,505.66s-17.1-103.8,13.1-114.2l45.3-10.1s14.5,32.7,39.4,8.7c0,0,47.7-16.6,51.4,21.4l5.7,35.8s19.8-38,25.5-33.6h37.8s-17.8,84-30.5,92Z"/><path class="cls-41" d="M585,476.76a154.81,154.81,0,0,0-4.3-27.1l1.9-.5a154.16,154.16,0,0,1,4.4,27.5Z"/><path class="cls-42" d="M522.58,394c.8-.6,1.5-1.1,2.3-1.6a6,6,0,0,0,.8-.8,2.18,2.18,0,0,1-.4.5h0a5.48,5.48,0,0,1,1.8-1.6h0c-.3-3.6-.9-12.3-.9-12.3a162.47,162.47,0,0,1-36.1-19.3l-1.3,6.3,33.8,28.8Z"/><path class="cls-41" d="M526.18,419a4,4,0,0,1-2.5-1l-16.2-16.2a1.68,1.68,0,0,0-2.2-.1c-4.1,3.8-14.7,10.5-20.6,14.2a3.39,3.39,0,0,1-3.5.1,3.47,3.47,0,0,1-1.9-3c-.5-10.5,4.5-31.3,4.7-32.1l1.9.5c-.1.2-5.2,21.3-4.7,31.6a1.29,1.29,0,0,0,.9,1.3,1.54,1.54,0,0,0,1.6-.1c4.7-3,16.2-10.1,20.3-14a3.47,3.47,0,0,1,4.9.1l16.2,16.2a1.6,1.6,0,0,0,1.5.4,1.57,1.57,0,0,0,1.1-1,33.37,33.37,0,0,0-1.3-26.5l1.8-.9a35.51,35.51,0,0,1,1.3,28.1,3.44,3.44,0,0,1-2.6,2.2A1.45,1.45,0,0,1,526.18,419Z"/><path class="cls-41" d="M520.78,505.66l-2-.1c.3-7.6-11.6-103.4-11.8-104.3l2-.2C509.58,405,521.18,498,520.78,505.66Z"/><rect class="cls-41" x="560.21" y="438.94" width="2" height="67.4" transform="translate(-81.54 118.77) rotate(-11.27)"/><path class="cls-41" d="M463.68,506.06c-2.8-5.7-.4-52.2-.1-57.5l2,.1c-.8,14.2-2.2,52-.1,56.5Z"/><path class="cls-41" d="M549.38,457.26l-23.4,2a3.44,3.44,0,0,1-3.8-3.2l-1.2-14.7a3.44,3.44,0,0,1,3.2-3.8l15.7-1.3,7.7-.6a3.44,3.44,0,0,1,3.8,3.2l1.2,14.7A3.45,3.45,0,0,1,549.38,457.26Z"/><path class="cls-38" d="M542.88,290.86l-2-4.5a8.87,8.87,0,0,0-6.7-7.3l-22.1-4.5a7.78,7.78,0,0,0-4.3.3L478.38,285a8.48,8.48,0,0,0-5.7,7l-5.9,39.2a3.25,3.25,0,0,1-.7,1.7c3.9,9.7,10.7,17.9,15.6,27.3,15.5,4.4,33.9,14.4,41.1,18.4,2.2,1.2,4.7,0,7.1-1,6.1-2.4,17.3-6.9,20-20.2C553.38,339.66,542.88,291.16,542.88,290.86Z"/><path class="cls-43" d="M520,386a10.87,10.87,0,0,0,1.8.1A5.15,5.15,0,0,1,520,386Z"/><path class="cls-44" d="M540.68,336.66c-2.1-.4-4,1-6.6,1.7a56.37,56.37,0,0,1-8.2,1.5c-4.1.4-8.3.6-12.4.9-3.2.2-7.1-.1-9.3,3a14,14,0,0,0-2,5.6c-1.6,8.3-2.5,18.9,4.6,25a19.66,19.66,0,0,0,9.7,4.2,29.61,29.61,0,0,0,21.7-4.6c6-4,9.4-12.7,9.7-19.7a23.38,23.38,0,0,0-4.5-15.5A4.3,4.3,0,0,0,540.68,336.66Z"/><path class="cls-38" d="M531.28,346.16,515,348a9.55,9.55,0,0,0-8.5,10.5,14.46,14.46,0,0,0,15.9,12.7l6.8-.8a14.29,14.29,0,0,0,12.7-15.8A9.68,9.68,0,0,0,531.28,346.16Z"/><path class="cls-45" d="M523.48,332.86a1.06,1.06,0,0,1-1-.9.94.94,0,0,1,.8-1.1c2.1-.3,3.2-1.1,3.7-2.4,1.7-4.1-4.2-12.9-6.7-15.9a1,1,0,1,1,1.6-1.2c1,1.2,9.3,11.8,7,17.8-.8,2.1-2.5,3.4-5.4,3.7Z"/><path class="cls-45" d="M525.88,358.06c-3.1,0-6.8-1.1-10.8-4.8a1,1,0,1,1,1.3-1.5c8.8,8,15.4,2.6,15.7,2.4a1,1,0,0,1,1.3,1.5A14.12,14.12,0,0,1,525.88,358.06Z"/><path class="cls-45" d="M534.38,313.56a.37.37,0,0,0-.5.2,8.94,8.94,0,0,0-.3,5.6,2.57,2.57,0,0,0,1.1,1.7c1,.6,2.2-.3,2.6-1.4a5.64,5.64,0,0,0-.1-3.4,5.28,5.28,0,0,0-.8-2.2,1.67,1.67,0,0,0-2-.5"/><path class="cls-45" d="M507.28,319.06a.37.37,0,0,0-.5.2,8.94,8.94,0,0,0-.3,5.6,2.57,2.57,0,0,0,1.1,1.7c1,.6,2.2-.3,2.6-1.4a5.64,5.64,0,0,0-.1-3.4,5.28,5.28,0,0,0-.8-2.2,1.58,1.58,0,0,0-2-.5"/><path class="cls-45" d="M511.28,306.06c-.7,1.1-2.3.7-3.5.4a11.72,11.72,0,0,0-10.5,2.1,5.19,5.19,0,0,0-1.7,1.9c-.5.9-.9,2.1-1.8,2.1a1.4,1.4,0,0,1-1.2-.9,2.9,2.9,0,0,1,0-1.6c.7-2.5,3.2-3.8,5.3-5,2.8-1.4,5.7-2.8,8.8-2.5,1,.1,3,0,3.7.5C511.28,303.36,511.78,305.16,511.28,306.06Z"/><path class="cls-45" d="M525.78,304.36a1.38,1.38,0,0,1,0-.9c.1-.3.4-.4.6-.5a21,21,0,0,1,7.7-2.4,3.3,3.3,0,0,1,1.4,0,8.26,8.26,0,0,1,2.2.8c.9.5,1.9.9,2.8,1.4a8.58,8.58,0,0,1,2,1.3,1.83,1.83,0,0,1,.6,1.5c-.1.6-.5,1.1-1.1,1a.76.76,0,0,1-.5-.2,39.15,39.15,0,0,0-5.3-2.9,5.64,5.64,0,0,0-5.6.9,6.81,6.81,0,0,1-1.2,1.2c-.4.4-1.8,1.3-2.4,1.1S526,304.86,525.78,304.36Z"/><path class="cls-44" d="M481.38,363.76a2.73,2.73,0,0,1-1.2-.9c-4.7-5.7-43-54.2-22.7-89.8,5-8.8,14.6-11.9,23.8-13.9,9.5-2.1,20-5.5,29.6-4.8a67.23,67.23,0,0,1,18.7,4.5c6.5,2.6,13.1,6.3,16.8,11.8,7.1,10.5,8.1,20.2,7.2,33.3-.4,6.2.3,13.1-.9,19.2-.8,4.2,0,16.1-2.8,16-4.2-16.4-2.5-43.3-15.1-57-6.1-6.7-59.6,11.3-57.2,26.1,1.2,7.7,4.8,15,7.7,22.2,1.8,4.3,4.1,8.4,5.5,12.9.8,2.6,1.9,5.6.4,8.1a15.72,15.72,0,0,0-1.8,3.1c-1.1,3.2,1.5,7.3-1.4,10.1C486.38,366,483.08,364.46,481.38,363.76Z"/><path class="cls-38" d="M483.08,337.36s-6.7-14.2-12.9-11.8c0,0-9.3.4-2.1,10.5,0,0,6,12.8,12.5,11C480.58,347,489.18,346.46,483.08,337.36Z"/><g id="face"><path class="cls-45" d="M472,333.56h0c-.1,0,.1-.2,0,0,0-.1.2-.3.1-.2.1-.1.2-.1.3-.2-.2.1.1,0,.2,0h.3c-.1,0,.2,0,.2.1a5.32,5.32,0,0,1,2.2,2,19.28,19.28,0,0,1,3.2,6,1.14,1.14,0,0,0,2.2-.6,21.58,21.58,0,0,0-4.3-7.7,4.65,4.65,0,0,0-3.7-2,2.84,2.84,0,0,0-2.8,2.7,1.11,1.11,0,0,0,1.1,1.1,1.2,1.2,0,0,0,1-1.2Z"/></g><path class="cls-46" d="M536,444.26a.46.46,0,0,1-.5-.4.68.68,0,0,1,.4-.6l10.6-1.2a.51.51,0,0,1,.2,1l-10.7,1.2Z"/><path class="cls-46" d="M538.28,446.56a.46.46,0,0,1-.5-.4.68.68,0,0,1,.4-.6l8.8-1a.51.51,0,0,1,.2,1l-8.9,1Z"/><path class="cls-46" d="M530.68,453.66l-1.9.2a2.91,2.91,0,0,1-3.1-2.7l-.4-4.4a2.91,2.91,0,0,1,2.7-3.1l1.9-.2a2.91,2.91,0,0,1,3.1,2.7l.4,4.4A3.12,3.12,0,0,1,530.68,453.66Z"/><path class="cls-46" d="M540.48,453.76a.37.37,0,0,1-.3-.1l-.9-.9-.8.9a.35.35,0,0,1-.5-.5l1.1-1.2a.5.5,0,0,1,.6,0l.9.9c.2-.2.4-.5.8-.9a.37.37,0,0,1,.3-.1,32.13,32.13,0,0,0,6.5,0c.2,0,.4.1.4.3s-.1.4-.3.4a27.31,27.31,0,0,1-6.5,0c-.6.7-.8.9-.8,1a.22.22,0,0,1-.2.2Z"/><polyline class="cls-41" points="539.78 430.96 543.18 430.96 543.18 435.86 539.78 436.06"/><polyline class="cls-41" points="545.68 435.66 545.68 430.96 546.98 430.96 546.98 437.76"/></g><g id="person_3" data-name="person 3"><path class="cls-24" d="M639.68,595.66s-25.3-44.5-82.6-22.1c0,0-36.9,11.7-26.5,64.2,0,0,2.7,14.2,17.9,27.1l.4.1a13.09,13.09,0,0,1,5.9.1,36.07,36.07,0,0,1,10.4,4.2l1.2.3a245.38,245.38,0,0,1-7.8-29s26.6-20.6,31.2-42.7c0,0,17.9,15.9,38.4,11.7,0,0,2,9.1-1.5,14.9l9.7,15C636.58,639.46,651.28,626.56,639.68,595.66Z"/><path class="cls-24" d="M693.18,753.76h0c-5,2.4-10,4.5-15.1,6.8-11.5,5.1-23,10.1-34.7,15.1-14.7,6.2-29.5,12.3-44.4,18-14.6,5.6-29.2,11-44.1,15.7-10.9,3.4-22.4,6.9-33.9,8-6.8.6-12.9-.5-17.5-6.1-5.1-6.3-7.3-15.3-7.2-23.1a55.79,55.79,0,0,1,1.5-12.2c1.1-4.5,3.1-7.9,5.3-11.9,2.8-4.8,1.2-9.3,1.2-14.4a29.86,29.86,0,0,1,4.3-14.5c3.3-5.4,8.4-9.6,11.1-15.3,3.1-6.4,1.1-14.1,1.3-20.9a57.35,57.35,0,0,1,3.7-18.3c2-5.1,4.7-11,9.1-14.6,4.9-4,9.8-3.5,15.6-2.1.1,0,72.5,18.2,79.3,17.5h.4c9.4-.5,19.5,4.6,27,10.6.3.3.6.5.9.8h0c12.6,8,9,12.5,17.6,15.7s9.7.9,17,8.1,9.7,32.8,9.7,32.8S695.88,752.56,693.18,753.76Z"/><path class="cls-25" d="M638.78,644.56a60.88,60.88,0,0,0-3.9-12.1c-2-4.2-5.7-7.8-5.5-12.5.1-2.4.3-4.6.3-7,0-1.8.1-4.9-1.5-6.2-1.4-1.2-3.7-.8-5.4-.7h-4.4a54.42,54.42,0,0,1-8-.9,51.87,51.87,0,0,1-12.3-3.9,39.53,39.53,0,0,1-9.3-5.9.52.52,0,0,0-.8.2c-2.3,9.7-7.5,18.8-13.5,26.7-4,5.4-8.8,11.4-14.5,15.2-1.1.7-2.1.8-2,2.4s.4,3.4.7,5.1a34.22,34.22,0,0,0,1.6,7.2c1.6,4.9,1.4,10.3,5.2,14.9.3,1.1-.7.4-1.1-.1a9.09,9.09,0,0,0-2.1-1.8c-1.1-.6-2.1-1.2-3.2-1.7A15.71,15.71,0,0,0,554,662c-1.3-.1-5.2.3-6.3,1,.3.2,3.2-.1,3.4.1-.8-.1-1.6-.3-2.4-.4-.2,0-.3-.1-.5,0-1.3.2-1.8,3.2-1.9,4.1a6.64,6.64,0,0,0,1.4,4.2,18.86,18.86,0,0,0,7.5,6.2c1.2.6,2.4,1.2,3.6,1.7,3.4,1.4,6.8,2.8,9.9,3.8a1.34,1.34,0,0,1,.7.6c9.7,11.6,39.9,12.8,39.9,12.8,4.4.5,9.1-1,13.1-3.4a34.06,34.06,0,0,0,6.9-5.5c0-.1.1-.1.1-.2l.9-1.2a39.37,39.37,0,0,0,3.5-5.5,48.35,48.35,0,0,0,4.9-13.3A52.84,52.84,0,0,0,638.78,644.56Z"/><path class="cls-11" d="M670.68,861.76l48.9.2-11.2-29.9s47.6-11.5,47.8-23.6c.1-6.2-19.6-25.4-19.6-25.4l-71.2-67.8s-9.8-18.2-46.2-7.8c-3.1.4-1.1,1.7-1.1,1.7Z"/><path class="cls-11" d="M570.58,720.76s-47.7,15.4-50.6,51.6l-18.7,89.4,109,.1Z"/><path class="cls-47" d="M547.88,861h0a1,1,0,0,1-1-1l2.2-100.8a1.08,1.08,0,0,1,1-1h0a1,1,0,0,1,1,1L548.88,860A1.07,1.07,0,0,1,547.88,861Z"/><path class="cls-47" d="M698.78,804.46a1.19,1.19,0,0,1-.9-.5l-37.4-66.8a1,1,0,1,1,1.8-1l37.4,66.8a1,1,0,0,1-.4,1.4C699.08,804.36,699,804.46,698.78,804.46Z"/><path class="cls-25" d="M610.68,694.66l9.6,17s14.1,32-3.7,35.5-37.3,8.6-41.5-7.6l-4.4-18.8s11-10.4,9.6-33Z"/><path class="cls-23" d="M604.68,861.76,572.28,728s3.8,19.3,32.2,17.3c28.8-2.9,15.4-33.9,15.4-33.9l50.8,150.4"/><path class="cls-48" d="M587.08,836.76a1.46,1.46,0,0,1-1.3-.7c-.1-.2-14.9-22.9-23.8-49.3-12-35.4-8.3-61.3,10.7-74.9a1.5,1.5,0,1,1,1.8,2.4c-43.5,31.2,13.3,119.4,13.8,120.2a1.48,1.48,0,0,1-.4,2.1A1.08,1.08,0,0,1,587.08,836.76Z"/><path class="cls-48" d="M591.48,855.66a8.51,8.51,0,1,1,1.1.1A2.16,2.16,0,0,0,591.48,855.66Zm0-19.3h-.9a8.15,8.15,0,0,0,1.8,16.2,7.6,7.6,0,0,0,5.4-3,8.12,8.12,0,0,0,1.8-6h0A8.2,8.2,0,0,0,591.48,836.36Z"/><path class="cls-48" d="M633.18,855.56c-1.7,0-3.2-1.1-4.6-3.2a1.51,1.51,0,0,1,2.5-1.7c.8,1.2,1.7,1.9,2.3,1.8.9-.1,1.9-1.4,2.4-2.3,8-32,4.5-42.5,1.8-46a4.63,4.63,0,0,0-3.2-1.9h-.3a4,4,0,0,0-3.4,1.1c-7.4,6-10.6,32.6-11.2,43a21.07,21.07,0,0,0,2.7,2.9,1.85,1.85,0,0,1,.7-.2h0a1.54,1.54,0,0,1,1.5,1.5,2,2,0,0,1-1.3,1.9c-1.3.4-2.8-.2-6.2-4.6a1.93,1.93,0,0,1-.3-1c0-.1.6-9.5,2.3-19.6,2.4-13.9,5.8-22.7,10-26.2a7.08,7.08,0,0,1,5.6-1.7c.7-.1,3.2.2,5.4,2.8,7.2,8.4,3.3,31.2-1.1,48.8,0,.1-.1.2-.1.3-.2.4-1.9,3.8-4.8,4.1A1.73,1.73,0,0,1,633.18,855.56Z"/><path class="cls-48" d="M634.08,802.46h-.2a1.5,1.5,0,0,1-1.3-1.7c10.3-95.8-17.1-100.2-17.4-100.2a1.46,1.46,0,0,1,.3-2.9c.2,0,4.7.5,9.7,6.5,8.5,10.2,17,35.5,10.4,97A1.5,1.5,0,0,1,634.08,802.46Z"/><polyline class="cls-27" points="579.28 690.26 611.88 696.26 617.98 707.76"/><path class="cls-26" d="M606.58,622.66c.7.7,2.4.2,3.6-2.1a11.3,11.3,0,0,1,4.7-4.5c1.4-.7,3-1.2,4.4-.6.4.2.8.5,1.3.7a1.41,1.41,0,0,0,1.4-.1,5,5,0,0,0-3.7-2.6,8.48,8.48,0,0,0-3.9.7,17.25,17.25,0,0,0-2.4,1,20.16,20.16,0,0,0-4.2,3.4C606.68,619.66,604.68,621.16,606.58,622.66Z"/><path class="cls-26" d="M590.88,629.76a4.92,4.92,0,0,0-2.9.6c-3,1.4-6.1,2.8-8,5.5a18.69,18.69,0,0,0-1.7,3.1c-.6,1.3-1.2,2.6-.9,3.9a.55.55,0,0,0,.3.5.69.69,0,0,0,.9-.3,3.81,3.81,0,0,0,.3-1c.6-4.2,4.4-7.5,8.7-8.2C592.58,633,591.38,630.56,590.88,629.76Z"/><path class="cls-26" d="M618.18,662.36a12.19,12.19,0,0,1-3.2-.4,1,1,0,1,1,.4-2c2,.5,4.6.7,6-.8,1.2-1.3,1.1-3.4.5-5.1-.9-2.7-9-13.3-11.9-17.2a1,1,0,0,1,1.6-1.2c1.2,1.5,11.1,14.4,12.3,17.8.7,2,.9,5-.9,7.1A6.19,6.19,0,0,1,618.18,662.36Z"/><path class="cls-26" d="M616.38,676.16a27.19,27.19,0,0,1-9.5-1.9,1,1,0,0,1,.7-1.9c.1.1,12.9,4.9,16.3-2.1a1,1,0,1,1,1.7.9C623.88,675.06,620,676.16,616.38,676.16Z"/><path class="cls-49" d="M639.58,794.16c6.6,22.2,8.5,35.3,15.9,55.7.7,2,1.6,4,3.3,5.1,2,1.2,4.4.8,6.7.2a220.56,220.56,0,0,0,21.5-6.1,4.32,4.32,0,0,0,2.4-1.5c.5-.8-10.6-38-10.6-38-2.2-9.5-6.1-22.8-7.6-23a5.93,5.93,0,0,0-2.3,0C658.18,788.86,639.58,794.16,639.58,794.16Z"/><path class="cls-49" d="M638.18,794.56c5.2,17.5,8.9,35.6,14.9,52.8,1.4,4,2.7,9.2,7.7,9.8a18.25,18.25,0,0,0,6.9-.9c2.7-.6,5.2-1.3,7.9-2s5.2-1.5,7.8-2.4c1.3-.4,2.6-.9,3.8-1.3a9.75,9.75,0,0,0,2.9-1.4c1.4-1.1,1.1-2.3.7-3.7-2.2-9.4-5.1-18.5-7.8-27.8-.9-2.9-1.8-5.7-2.6-8.6-1.9-6.8-3.2-13.7-5.9-20.3a12,12,0,0,0-1.5-3c-1-1.3-2.7-1.2-4-1-3.5.6-7.1,1.6-10.6,2.5-5.9,1.5-11.9,3.2-17.7,4.8l-1.1.3c-1.9.5-1.1,3.3.8,2.9,4.1-1.2,8.2-2.3,12.3-3.4,3.4-.9,7-1.9,10.4-2.7,1.7-.4,3.2-.8,4.9-1.1a13.33,13.33,0,0,1,2.8-.3c.3,0,.1-.2-.1-.2.2,0,0,0,.2.2a37.62,37.62,0,0,1,2.9,7.5c1.2,3.7,2.2,7.6,3.2,11.4.7,2.8,1.5,5.5,2.3,8.2,2.8,9.3,5.5,18.4,8,27.8a34.81,34.81,0,0,1,1,4.1c0,.2.1.4.1.6h0c0,.1.1-.7.2-.7s-.5.4-.5.4a8.43,8.43,0,0,1-1.4.6l-3.6,1.2c-4.9,1.6-9.8,3-14.9,4.2-2.2.5-4.6,1.4-6.8,1s-3.1-2.4-3.7-4.2c-6-16.1-9.5-32.8-14-49.1-.7-2.4-1.4-4.7-2.1-7.1C640.48,792.06,637.58,792.86,638.18,794.56Z"/><path class="cls-25" d="M678.58,841a33.5,33.5,0,0,0,29.7-9c10-16.8-12.4-28.4-12.4-28.4-8,3-32.5,10.2-33.4,16.9-.4,3.2,4.5,2.6,7.2,2.3a56.1,56.1,0,0,0,16-4l-16,4s6,9.7,7.6,13.3C676,838.16,677.38,840.76,678.58,841Z"/><path class="cls-27" d="M662.08,822.26c2.4,2.7,7,1.7,10,1.3a65.27,65.27,0,0,0,15.5-3.9,1.4,1.4,0,0,0,1-1.8c-.2-.7-1.1-1.4-1.8-1a51.72,51.72,0,0,1-14.5,3.8c-1.5.2-2.9.4-4.3.5-1.2.1-3,.2-3.8-.8a1.42,1.42,0,1,0-2.1,1.9Z"/><path class="cls-27" d="M671.38,821c-2.1.4-3,2.8-2.5,4.6.7,2.3,3.1,3.2,5.2,3.5a39.3,39.3,0,0,0,16.7-1c1.9-.5,1.1-3.3-.8-2.9a36.61,36.61,0,0,1-12.3,1.3c-1.6-.1-3.6-.1-5-.9-.5-.3-.9-.6-.9-1.1s0-.7.4-.8c1.9-.2,1.1-3.1-.8-2.7Z"/><path class="cls-27" d="M673.18,828.06c-1.4,1.4-.8,3.6-.1,5.1,1,2.1,3.2,2.6,5.3,2.9a30.83,30.83,0,0,0,15-1.8,1.4,1.4,0,0,0,1-1.8,1.47,1.47,0,0,0-1.8-1,28.13,28.13,0,0,1-11.5,1.9,13.33,13.33,0,0,1-2.8-.3,4.39,4.39,0,0,1-2.2-.7,2.73,2.73,0,0,1-.7-1.3,1.7,1.7,0,0,1-.1-.7c0-.3.2-.5,0-.3,1.3-1.2-.7-3.3-2.1-2Z"/><circle class="cls-50" cx="669.28" cy="803.56" r="3.6"/><path class="cls-26" d="M557.58,673.66a2.46,2.46,0,0,1-1.5-.5c-1.2-1-.9-3.1-.7-3.8l-3.8-3.1a.5.5,0,0,1,.6-.8l4,3.2c.2.1.2.3.2.5-.2.6-.5,2.6.3,3.2s2.2.2,4.2-1a.51.51,0,1,1,.5.9A8.48,8.48,0,0,1,557.58,673.66Z"/><path class="cls-26" d="M621.58,629.46c-.5-.1-.8.6-.8,1.1a6.56,6.56,0,0,0,1.4,4.1c.5.6,1.4,1.2,2.1.8s.6-1.4.4-2.2a17.88,17.88,0,0,0-1.3-3.2c-.3-.5-.7-1-1.2-.8"/><path class="cls-26" d="M621.58,628a2.23,2.23,0,0,0-2.1,1.7,4.87,4.87,0,0,0,0,2.4,6.86,6.86,0,0,0,1.9,3.9,3.6,3.6,0,0,0,2.1,1.1,2.5,2.5,0,0,0,2.5-1.2c.8-1.3.3-2.9-.2-4.1-.6-1.7-1.7-4.3-3.9-3.7a1.4,1.4,0,0,0-1,1.8,1.47,1.47,0,0,0,1.8,1h-.5c-.2-.1-.1,0,0,0s-.3-.2-.1-.1h0c.1.1.1.2.2.3s.3.5.4.7.1.2.1.3a.35.35,0,0,0,.1.2c0-.1-.1-.2,0,0a8.8,8.8,0,0,1,.5,1.5c0,.1.1.2.1.3h0v.6s.1-.4,0-.2v.1c0,.1.1-.2.1-.2l-.1.1s.2-.3.1-.2.2-.1.2-.1l-.1.1s.3-.1.1-.1h.1s.3.1.2,0H624c-.2,0,0-.1.1.1a.31.31,0,0,0-.2-.1c-.2-.1.1,0,.1.1l-.1-.1-.2-.2c-.2-.2.1.2,0-.1s-.3-.4-.4-.6-.1-.2-.2-.3a.1.1,0,0,0-.1-.1c-.1-.2,0-.1,0,.1,0-.1-.1-.2-.1-.3s-.1-.3-.1-.4-.1-.3-.1-.4v-.1c0-.3-.1-.6,0-.8v-.1c0-.1-.1.4,0,.1,0-.1.1-.4,0-.1s0,.1,0,0-.2.3-.1.1-.2.2-.2.1c-.1.1-.2.1-.4.1h-.1c.8.1,1.5-.8,1.5-1.5a2,2,0,0,0-1.8-1.7Z"/><path class="cls-26" d="M597.18,641.86a2.52,2.52,0,0,0-1.4,3.2,4.52,4.52,0,0,0,2.8,2.6c.6-.2.6-1.1.5-1.7a15.49,15.49,0,0,0-1.3-3.8"/><path class="cls-26" d="M596.78,640.46a4.1,4.1,0,0,0-1.8,6.3,6.36,6.36,0,0,0,3.2,2.4,2,2,0,0,0,2.4-1.5,4.08,4.08,0,0,0,.1-1.9,14,14,0,0,0-1.5-4.2,1.49,1.49,0,0,0-2.1-.5,1.58,1.58,0,0,0-.5,2.1,2.51,2.51,0,0,0,.4.7c.2.4-.1-.2,0,.1.1.1.1.3.2.4.2.5.3,1,.5,1.4.1.2.1.5.2.7v.4c-.1.3.1-.4,0,0,.2-.2.2-.3.1-.2.1-.1.3-.2.4-.3h.8c-.3-.1.3.2,0,0-.1,0-.1-.1-.2-.1a.76.76,0,0,0-.4-.2c-.1-.1-.3-.2-.4-.3s.3.2.1,0l-.2-.2-.3-.3-.1-.1.1.1c0-.1-.1-.1-.1-.2s-.1-.3-.2-.4c.1.1.1.3,0,.1s0-.1-.1-.2v-.2c-.1-.3,0,.4,0,.1v-.4c0-.2.1-.2,0,.1V644c0-.1.1-.3.1-.4,0,.1-.2.3,0,.1,0-.1.1-.1.1-.2s.1-.1.1-.2c-.2.3-.2.2,0,.1l.1-.1c.1-.1-.3.2-.1.1s.1-.1.2-.1-.3.1-.1,0a1.47,1.47,0,0,0,1-1.8c-.5-.7-1.2-1.3-2-1Z"/><path class="cls-47" d="M696,804.66a.87.87,0,0,1-.9-.6,1,1,0,0,1,.5-1.3l29.3-12.4a1,1,0,1,1,.8,1.8l-29.3,12.4A.76.76,0,0,1,696,804.66Z"/></g><g id="person_5" data-name="person 5"><path class="cls-51" d="M909.48,378.66a18.1,18.1,0,0,0,16.7-7.1s.7-25.6-2.7-26.5c-3.2-.9,14.7,8.1,25.8,0,0,0,.7,25.6,3,29.1,0,0,11.1,4.9,17.3,3.4s2,22.2,2,22.2l-57.8,9.6Z"/><path class="cls-51" d="M931.38,266.16s-27.1,15.4-29.1,37.4c0,0-1.8,23,8.4,35.7s14.1,14.6,14.1,14.7c8.9,4.3,17.9,3,26.8-.6,6.6-2.7,18.3-6.3,18.6-15,0,0,1-25,0-31.6s-3.9-19.8-3.9-19.8S943.18,265.16,931.38,266.16Z"/><path class="cls-11" d="M863.28,459.06s-3.9-86,14.2-82.9c0,0,28.4-12.4,35.4-7.5,0,0,26.2,46.9,65.8,0,0,0,36.9-3.4,41.5,7.5l16.2,86.8Z"/><path class="cls-19" d="M989.18,339.76c-.9,9.6-2.8,19.4-3.3,28.9-.6,9.9-2.3,19.9-7.8,28.1-1.4,2.2-4.9,3.2-9.5,3.6l-13.2,5.6h-28.5l-7.5-3.2c-14.6-1.2-31.3-20.7-31.3-20.7a30.18,30.18,0,0,1-3.2-5.2,86.92,86.92,0,0,1-4.3-11.1c-3.7-16.2,20.8-18,20.8-18a116,116,0,0,1-4.2-26.5c-4.2-16.2-3.2-52.4-3.2-52.4,0-21,43.2-31.6,43.2-31.6,16.1-5.5,35,16.2,35,16.2,9.4,9,11.4,25.3,13,37.5,1,7.8.8,15.5,1.8,23.2C988,322.56,990,331.36,989.18,339.76Z"/><path class="cls-19" d="M919.58,460.36c-4.6,0-11.7.1-20.3.2-13.1.2-14.2.4-15.6-.2-4.7-2.2-11-13.3,4.5-78.3,0,0,16.7,19.5,31.3,20.7a124.28,124.28,0,0,1-3.3,21.3Z"/><path class="cls-6" d="M933.78,366.76c-18.3,0-32.5-18.6-32.6-18.8a.5.5,0,1,1,.8-.6c.2.2,15.9,20.8,35.3,18.1a.68.68,0,0,1,.6.4c.1.2-.2.5-.4.6A26.16,26.16,0,0,1,933.78,366.76Z"/><path class="cls-6" d="M936.58,387.56c-24.1,0-37.2-19.5-37.3-19.7a.5.5,0,0,1,.8-.6c.2.2,16.4,24.5,46.3,18.2.3-.1.5.1.6.4s-.1.5-.4.6A45.61,45.61,0,0,1,936.58,387.56Z"/><path class="cls-52" d="M911.08,269.36s31.4-31.4,56.9,0c3.2,3.9,3.9,13,4.7,17.7,4.4,27.8.4,66.5-37.2,59-10.8-2.2-17.8-6.9-22.7-16.6C904.88,313.86,896.68,283.86,911.08,269.36Z"/><rect class="cls-11" x="922.58" y="248.96" width="34.7" height="26.8"/><path class="cls-19" d="M931,269a151.24,151.24,0,0,1-8.9,13.6c-4.7,6.5-11.5,15.7-18,20.4-4,2.9-3.7-6.4-4.7-8.5a28.37,28.37,0,0,1-2.5-9.6,26.51,26.51,0,0,1,5.4-18.5,100.3,100.3,0,0,1,7.2-7.4c3.1-3.1,5.8-6.5,9.4-8.9,4.5-3.2,10-4.4,15.5-5.6,3.5-.8,7.1-1.6,10.6-1.2,7.9,1,15.7,5.5,18.6,14,2.1,5.7,7.5,9.6,11.3,14.3,2.5,3.1,4.9,6.2,6.1,9.9a23.27,23.27,0,0,1,1.1,5.1,61.25,61.25,0,0,1,.4,12.1c-.1,2.1-5.2,5.3-6.4,4.6-2.9-1.7-6.6-9.5-8.8-11.9-2.6-3-5.1-5.8-7.7-8.8-5.7-6.5-11.2-13-15.4-20.7-1.5-2.9-3.1-7.2-6.4-4.6C935.08,259.56,932.88,266,931,269Z"/><path class="cls-26" d="M947.38,291.06a3.85,3.85,0,0,1,2.4-.8c2.8-.3,5.7-.6,8.3.6.9.4,1.7,1,2.6,1.5a5.77,5.77,0,0,1,2.4,2.5.45.45,0,0,1,0,.5c-.1.3-.5.3-.8.2s-.5-.4-.7-.6c-2.3-2.9-7.4-2.8-9.9-2.3C947.78,293.36,947.38,291.86,947.38,291.06Z"/><path class="cls-26" d="M939.08,322.66a5.8,5.8,0,0,1-2.8-.9c-.7-.3-3.6-1.7-4.3-3.9s2.5-10.7,3.3-13.2a1,1,0,0,1,1.9.7c-1.9,4.9-3.6,10.9-3.3,12,.4,1.3,2.5,2.5,3.2,2.8.1,0,.1.1.2.1s1.7,1.2,2.8.1a1,1,0,0,1,1.4,1.4A3.78,3.78,0,0,1,939.08,322.66Z"/><path class="cls-26" d="M940.28,332.26a13.41,13.41,0,0,1-7.6-2.8A1,1,0,0,1,934,328h0a9.22,9.22,0,0,0,11.8.2,1,1,0,1,1,1.2,1.6A11,11,0,0,1,940.28,332.26Z"/><path class="cls-26" d="M934,291.46a3.92,3.92,0,0,0-2.4-.9c-2.8-.5-5.7-.9-8.4.1a21.48,21.48,0,0,0-2.6,1.4,5.3,5.3,0,0,0-2.5,2.4.45.45,0,0,0,0,.5.63.63,0,0,0,.8.3c.3-.1.5-.4.7-.6,2.5-2.8,7.6-2.3,10-1.7C933.48,293.66,934,292.26,934,291.46Z"/><path class="cls-19" d="M991.18,416.86a1.06,1.06,0,0,1-1-.9l-1.6-14.1a1,1,0,1,1,2-.2l1.6,14.1c.1.5-.3,1-1,1.1Z"/><ellipse class="cls-26" cx="952.08" cy="305.06" rx="2.1" ry="3.9"/><ellipse class="cls-26" cx="926.98" cy="303.56" rx="2.1" ry="3.9"/></g><g id="laptop"><path class="cls-53" d="M1141,469.76l-52.6,21.3s-122.9-.8-127.3-.8-5-5.6-5-5.6l-17.4-66c-1.3-5,3.7-4.3,3.7-4.3s110.8.6,119.6-.3,8.1,2.8,8.1,2.8,5,24.3,13.1,46.1a1.42,1.42,0,0,1,.2.6l5.3,20.2c.1,1.1.2,2,.2,2.8l52.2-19.2a3.19,3.19,0,0,1,1.9.6C1143.48,468.66,1142.78,469.76,1141,469.76Z"/><path class="cls-54" d="M1029.18,444.36h-43.8a1,1,0,0,1,0-2h43.8a1,1,0,0,1,0,2Z"/><path class="cls-54" d="M1029.68,449.86h-43.8a1,1,0,0,1,0-2h43.8a.94.94,0,0,1,1,1A1,1,0,0,1,1029.68,449.86Z"/><path class="cls-54" d="M1030.38,455.46h-43.8a1,1,0,0,1,0-2h43.8a.94.94,0,0,1,1,1A1,1,0,0,1,1030.38,455.46Z"/><polyline class="cls-55" points="1088.78 486.26 1084.48 468.16 1137.88 468.16"/></g><path class="cls-23" d="M909.48,676.16v15.9a9.9,9.9,0,0,1-10,10h-3V713l-9.2-10.9h-26.9a10,10,0,0,1-10-10v-15.9a10,10,0,0,1,10-10h39A9.86,9.86,0,0,1,909.48,676.16Z"/><circle class="cls-11" cx="870.08" cy="684.46" r="2.7"/><circle class="cls-11" cx="879.28" cy="684.46" r="2.7"/><circle class="cls-11" cx="888.68" cy="684.46" r="2.7"/><g class="cls-56"><path class="cls-12" d="M486.69,174.44H390.2V126.72h96.49Z"/><path class="cls-57" d="M480.71,150.58c0,12.07-18.92,21.86-42.27,21.86s-42.27-9.79-42.27-21.86,18.94-21.85,42.27-21.85,42.27,9.79,42.27,21.85"/><path class="cls-11" d="M477.84,150.58c0,10-17.64,18.12-39.4,18.12S399,160.58,399,150.58s17.64-18.12,39.4-18.12,39.4,8.11,39.4,18.12"/><path class="cls-57" d="M407.12,143.82h9.65V146h-7.29v4h7.29v2.19h-7.29v5.53h7.29V160h-9.65Z"/><path class="cls-12" d="M432.93,144.38v2.5a12.52,12.52,0,0,0-5.17-1.28,7.52,7.52,0,0,0-5.11,1.81,5.71,5.71,0,0,0-2.08,4.47,5.65,5.65,0,0,0,2.12,4.49,7.94,7.94,0,0,0,5.31,1.8,10.62,10.62,0,0,0,4.91-1.35v2.52a11.38,11.38,0,0,1-5.12,1.16,10.06,10.06,0,0,1-6.91-2.53,7.91,7.91,0,0,1-.05-12.15,9.9,9.9,0,0,1,6.78-2.5,14.73,14.73,0,0,1,5.32,1.06"/><path class="cls-57" d="M435.15,143.82h2.38V150h8.31v-6.2h2.36V160h-2.36v-7.75h-8.31V160h-2.38Z"/><path class="cls-57" d="M467.2,151.9a5.72,5.72,0,0,0-2.08-4.49,7.51,7.51,0,0,0-5.11-1.83,7.16,7.16,0,0,0-4.94,1.86,5.83,5.83,0,0,0,.05,8.94,7.62,7.62,0,0,0,5.17,1.83,7,7,0,0,0,4.86-1.87,5.82,5.82,0,0,0,2.05-4.44Zm-16.67-.1a7.71,7.71,0,0,1,2.84-6,10,10,0,0,1,6.84-2.49,9.78,9.78,0,0,1,6.71,2.5,7.75,7.75,0,0,1,2.81,6A8,8,0,0,1,467,158a10.43,10.43,0,0,1-13.62,0,8.05,8.05,0,0,1-2.8-6.16"/><path class="cls-58" d="M429.39,135h-.75v1.28h.8a1.12,1.12,0,0,0,.68-.18.52.52,0,0,0,.24-.48c0-.42-.33-.62-1-.62Zm-1.48,3.56v-4.1h1.61a1.94,1.94,0,0,1,1.16.32,1,1,0,0,1,.43.86.91.91,0,0,1-.23.62,1.19,1.19,0,0,1-.61.4,4,4,0,0,1-1.11.12h-.53v1.78Z"/><path class="cls-58" d="M432.36,135.92v.61l0,0a1.32,1.32,0,0,1,1-.63,1.39,1.39,0,0,1,.79.31l-.35.47a1.06,1.06,0,0,0-.64-.27.77.77,0,0,0-.56.24.81.81,0,0,0-.24.59v1.41h-.67v-2.69Z"/><path class="cls-58" d="M436,136.38a1.13,1.13,0,0,0-.78.26.81.81,0,0,0-.31.64.77.77,0,0,0,.31.62,1.29,1.29,0,0,0,.8.24,1.25,1.25,0,0,0,.8-.25.75.75,0,0,0,.3-.64.78.78,0,0,0-.32-.64,1.29,1.29,0,0,0-.8-.23Zm0-.48a2,2,0,0,1,1.27.4,1.26,1.26,0,0,1,.51,1,1.23,1.23,0,0,1-.51,1,2.14,2.14,0,0,1-1.29.38,2.05,2.05,0,0,1-1.26-.38,1.22,1.22,0,0,1-.5-1,1.2,1.2,0,0,1,.5-1,1.93,1.93,0,0,1,1.28-.42"/><path class="cls-58" d="M438.83,134.78a.42.42,0,0,1,.28.1.26.26,0,0,1,.12.22.3.3,0,0,1-.11.23.48.48,0,0,1-.56,0,.28.28,0,0,1-.12-.23.25.25,0,0,1,.12-.21.33.33,0,0,1,.27-.11Zm-.32,1.14h.66V139a1,1,0,0,1-.66,1l-.5-.38a.65.65,0,0,0,.36-.23.52.52,0,0,0,.14-.37Z"/><path class="cls-58" d="M440.67,137h1.68a.7.7,0,0,0-.24-.49.89.89,0,0,0-.58-.17.91.91,0,0,0-.58.17A.78.78,0,0,0,440.67,137Zm2.33.32h-2.35a.81.81,0,0,0,.32.62,1.31,1.31,0,0,0,.76.22,2.17,2.17,0,0,0,1.2-.33v.52a2.51,2.51,0,0,1-.6.24,3.6,3.6,0,0,1-.7.07,1.91,1.91,0,0,1-.9-.19,1.5,1.5,0,0,1-.54-.49,1.31,1.31,0,0,1-.2-.72,1.27,1.27,0,0,1,.42-1,1.64,1.64,0,0,1,1.12-.39,1.52,1.52,0,0,1,1.07.37,1.32,1.32,0,0,1,.4,1v.08Z"/><path class="cls-58" d="M446.23,138v.53a3.43,3.43,0,0,1-1,.15,1.94,1.94,0,0,1-1.25-.37,1.25,1.25,0,0,1-.47-1,1.28,1.28,0,0,1,.46-1,1.82,1.82,0,0,1,1.2-.39,3,3,0,0,1,.46,0,4.36,4.36,0,0,1,.51.15v.57a2,2,0,0,0-.93-.25,1.07,1.07,0,0,0-.74.25.89.89,0,0,0-.29.64.81.81,0,0,0,.31.66,1.35,1.35,0,0,0,.84.24,2.74,2.74,0,0,0,.88-.19"/><path class="cls-58" d="M446.51,136.34l1.24-1v.56h1.05v.48h-1.05v1.32a.42.42,0,0,0,.48.46A1.71,1.71,0,0,0,449,138v.49a1.88,1.88,0,0,1-.82.17,1.22,1.22,0,0,1-.76-.21.46.46,0,0,1-.16-.15.68.68,0,0,1-.11-.21,1.78,1.78,0,0,1,0-.49v-1.2h-.59v-.06Z"/><path class="cls-58" d="M470.68,144.58v.67h.44a.84.84,0,0,0,.41-.08.28.28,0,0,0,.14-.25.28.28,0,0,0-.12-.26.9.9,0,0,0-.44-.08Zm0,1.92h-.36v-2.22h.77a2,2,0,0,1,.58.06.55.55,0,0,1,.26.22.56.56,0,0,1,.11.32.52.52,0,0,1-.17.42.67.67,0,0,1-.46.2.94.94,0,0,1,.24.18,2,2,0,0,1,.28.38l.27.44h-.44l-.2-.34a2.78,2.78,0,0,0-.33-.5.45.45,0,0,0-.34-.1h-.21v.94Zm.47-2.84a1.73,1.73,0,0,0-1.23.51,1.73,1.73,0,0,0,0,2.45,1.66,1.66,0,0,0,1.23.51,1.62,1.62,0,0,0,1.21-.51,1.67,1.67,0,0,0,.51-1.21,1.73,1.73,0,0,0-.51-1.23,1.63,1.63,0,0,0-1.21-.52Zm0-.34a2,2,0,0,1,1,.28,2.05,2.05,0,0,1,.76.76,2.08,2.08,0,0,1,.28,1,2.1,2.1,0,0,1-.28,1,2.13,2.13,0,0,1-.76.76,2.1,2.1,0,0,1-1,.28,2.08,2.08,0,0,1-1-.28,2.05,2.05,0,0,1-.76-.76,2,2,0,0,1-.28-1,2.08,2.08,0,0,1,2.08-2.08"/></g></svg>